<?xml version="1.0" encoding="UTF-8"?>
<svg width="107" height="55" id="Layer_2" data-name="Layer 2" xmlns="http://www.w3.org/2000/svg" viewBox="0 0 996 512">
  <g id="Layer_1-2" data-name="Layer 1">
    <g>
      <path d="m545,512c6.3-35.06,12.46-70.15,18.99-105.17,2.72-14.57.48-11.82,13.49-12.02,7.45-.12,9.63-1.41,6.99,8.34-.12.43.1.95.24,1.96,3.5-2.69,6.67-5.24,9.96-7.62,4.87-3.53,10.36-5.45,16.37-5.16,9.92.49,17.24,6.63,20.08,16.59,2.08,7.31,2.52,14.68,1.24,22.24-1.96,11.6-6.74,21.96-13.47,31.41-10.11,14.19-30.04,19.27-45.25,6.42-3.54,14.44-5.93,28.76-8.63,43.01h-20Zm66.71-88.55c0-1.83.24-3.7-.05-5.48-.68-4.23-.69-9.31-5.29-11.17-5.03-2.04-10.2-.87-14.57,2.57-1.42,1.12-2.75,2.44-3.83,3.9-8.18,11.06-11.64,23.77-12.83,37.26-.28,3.17,1.07,5.4,3.4,7.32,7.46,6.12,17.12,4.44,23.86-4.44,6.69-8.82,9.28-19.02,9.29-29.94Z" fill="currentColor"/>
      <path d="m342,0c-8.46,23.91-22.83,43.74-42.96,58.92-21.32,16.08-45.32,27.24-71.91,30.58-22.58,2.84-44.57-.78-64.25-13.51-6.92-4.48-11.71-10.8-15.34-18.07-.65-1.3-1.71-2.84-.61-4.18,1.25-1.52,2.82-.18,4.1.34,19.28,7.79,39.31,11.18,60.07,10.74,24.03-.51,46.26-7.57,67.23-18.79,22.63-12.11,42.97-27.35,60.67-46.03h3Z" fill="currentColor"/>
      <path d="m0,221c35.01-16.16,69.17-33.76,98.39-59.45,6.9-6.06,12.63-13.13,16.7-21.58,6.24-12.94,3.59-24.23-5.43-34.58-4.63-5.32-10.14-9.61-16.28-13.09-1.23-.7-3.07-1.27-2.4-3.23.64-1.89,2.52-1.5,3.88-1.24,16.51,3.2,32.41,8.12,45.47,19.26,10.71,9.14,11.92,23.77,3.83,37.32-7.57,12.67-17.84,22.74-29.85,31.15-26.62,18.64-56.15,31.07-86.99,40.68-9.04,2.82-17.89,6.35-27.33,7.76v-3Z" fill="currentColor"/>
      <path d="m996,267c-2.08,3.65-5.63,2.93-8.89,2.94-10.99.06-11.07.03-12.84,10.85-1.74,10.66-3.5,21.33-4.88,32.05-1.39,10.75,1.17,13.02,11.58,11.04,1.85-.35,3.98-.93,4.15,1.85.19,3.03,3.03,7.18-1.49,8.8-9.04,3.24-18.44,4.72-27.81,1.27-4.98-1.84-7.38-6.05-7.92-11.21-.38-3.65.07-7.27.82-10.9,2.69-13.03,5.18-26.1,7.85-39.13.62-3.02.39-4.82-3.38-4.68-1.94.07-4.65.79-4.99-2.55-.45-4.35,2.33-10.36,5.13-10.09,6.67.65,7.74-3.11,8.66-8.48,2.1-12.16.82-9.6,11.66-11.96,9.75-2.12,9.81-1.96,8.53,8.15-.4,3.13-.77,6.29-1.5,9.35-.83,3.5.61,4.47,3.84,4.41,3.82-.07,7.64.17,11.46.28v8Z" fill="currentColor"/>
      <path d="m465.72,140.75c16.97-.3,33.11.43,49.19,2.1,1.72.18,4.45-.22,4.45,2.07,0,2.74-2.87,2.1-4.71,2.25-44.71,3.63-88.43,11.95-130.5,27.83-21.26,8.02-40.17,19.47-53.01,39.06-11.48,17.52-17.33,36.95-19.95,57.55-1.54,12.13-1.1,24.28-.76,36.43.05,1.83.44,3.83-1.96,4.53-2.07.61-3.07-.84-3.88-2.34-13.83-25.43-21.46-52.22-15.05-81.19,6.5-29.4,25.94-49.04,51.48-63,24.61-13.46,51.44-19.92,79.13-23.19,15.41-1.82,30.87-2.53,45.58-2.11Z" fill="currentColor"/>
      <path d="m200.96,336.51c-.18-10.13-.82-19.72-2.12-29.24-2.08-15.13-5.9-29.7-13.7-43.01-12.65-21.6-32.2-29.22-56.2-27.64-40.19,2.66-77.18,16.84-113.89,31.95-2,.82-3.96,1.75-5.99,2.51-1.16.44-2.72,1.52-3.52-.1-.75-1.52.96-2.33,1.96-3.04,9.51-6.77,19.52-12.75,29.81-18.24,26.37-14.05,53.53-26.28,82.64-33.51,18.23-4.53,36.62-6.73,55.29-1.8,23.78,6.28,36.83,21.85,39.86,47.82,2.89,24.84-2.74,48.28-11.16,71.32-.28.77-.73,1.49-1.18,2.18-.14.22-.56.26-1.81.79Z" fill="currentColor"/>
      <path d="m411.25,444.25c-12.88-3.62-20.06,2.59-24.3,14.01-.57,1.54-1.81,2.85-2.32,4.41-3.12,9.5-9.99,11.71-19.08,10.42-4.57-.65-5.12-1.07-2.95-5.06,15.91-29.24,31.85-58.46,47.79-87.69,2.47-4.53,5.13-8.96,7.42-13.58,1.54-3.11,3.71-4.16,7.13-4.18,12.21-.05,12.3-.17,14.07,11.71,4.62,30.93,9.1,61.88,13.79,92.79.68,4.48-.66,5.93-5.11,6-14.96.24-14.95.35-17.13-14.33q-2.15-14.51-16.81-14.51c-.83,0-1.66,0-2.5,0Zm12.75-56.44c-.32-.05-.64-.1-.96-.15-6.5,12.85-12.98,25.71-19.51,38.55-1.49,2.94,0,3.45,2.5,3.43,5.81-.03,11.63-.12,17.44.03,3.55.09,4.8-1.44,4.41-4.82-.45-3.96-.74-7.93-1.16-11.89-.89-8.39-1.81-16.77-2.72-25.16Z" fill="currentColor"/>
      <path d="m479.9,89.76c8.12-.23,22.61-.62,37.06-1.79,2.32-.19,4.66-.24,6.99-.23,1.27,0,2.95-.22,3.05,1.69.08,1.49-1.34,1.75-2.46,2.01-7.46,1.72-14.89,3.63-22.41,5.07-28.18,5.4-56.53,9.33-85.33,8.5-14.22-.41-28.21-2.26-41.73-6.91-6.86-2.36-13.07-5.83-18.31-10.91-10.49-10.16-9.61-24.11-2.07-37.79,8.64-15.67,22.16-26.88,35.67-38.05,3.72-3.08,7.61-5.95,11.48-8.85.99-.74,2.24-2.15,3.45-.78,1.14,1.3-.28,2.51-1.1,3.42-6.48,7.22-12.23,14.98-16.89,23.48-4.09,7.47-7.65,15.13-8.15,23.9-.72,12.6,5.15,20.93,16.27,26.05,9.8,4.51,20.23,6.66,30.83,8.03,15.7,2.04,31.45,3.46,53.68,3.15Z" fill="currentColor"/>
      <path d="m563.69,264.8c.45-5.6,3.28-6.47,7.1-6.15,2.65.22,5.34.22,7.99,0,4.49-.36,5.88,1.28,5.03,5.82-3.51,18.65-6.78,37.35-10.14,56.03-.65,3.61-1.34,7.2-1.93,10.82-.45,2.75-1.91,4.08-4.77,3.92-1.99-.11-4,0-6,0q-8.66,0-8.76-8.63c-2.46,1.72-4.59,3.2-6.72,4.7-4.85,3.42-10.09,5.68-16.11,6.21-9.73.85-17.74-3.66-21.75-12.57-10.68-23.68,3.19-57.74,27.47-67.06,10.39-3.98,19.98-2.82,28.58,6.9Zm-38.52,43.2c.07,3.02.12,5.99.94,8.92,2.06,7.33,7.61,10.07,14.65,7.1,3.82-1.61,6.71-4.42,8.86-7.82,6.92-10.96,10.29-23.02,10.12-35.96-.08-6.01-4.16-9.74-10.14-10.23-5.02-.41-9.08,1.32-12.47,4.97-8.67,9.33-11.29,20.81-11.96,33.01Z" fill="currentColor"/>
      <path d="m699.67,297.27c-2.31,12.83-4.48,24.25-6.34,35.72-.56,3.43-1.91,5.08-5.44,4.96-3.33-.12-6.66-.07-9.99-.01-3.89.07-5.21-1.32-4.41-5.49,4.73-24.68,9.21-49.41,13.76-74.12,1.87-10.15,3.82-20.28,5.53-30.46.63-3.77,2.26-5.74,6.26-5.22.82.11,1.66,0,2.5.01,13.5.18,12.48-1.84,9.93,12.49-3.14,17.7-6.46,35.36-9.68,53.04-.08.42.05.88.12,1.96,9.19-9.87,18.22-19.16,26.71-28.9,3.07-3.52,5.57-4.1,9.21-1.59,1.09.75,2.33,1.3,3.57,1.79,3.66,1.45,4.07,3.15,1.09,6.04-8.01,7.77-15.7,15.87-23.77,23.57-2.92,2.79-3.44,4.87-1.12,8.44,6.34,9.78,12.12,19.91,18.37,29.75,2.33,3.67,1.32,5.01-2.45,6.33-13.32,4.7-13.29,4.81-19.27-7.69-4.66-9.75-9.29-19.51-14.58-30.62Z" fill="currentColor"/>
      <path d="m847.84,324.1c-6.37,6.18-11.76,11.16-18.83,13.64-2.66.93-5.4,1.79-8.17,2.2-13.92,2.03-22.34-5.31-21.84-19.36.39-10.86,3.51-21.33,5.48-31.96,1.58-8.51,3.35-16.99,4.88-25.51.57-3.16,2.01-4.66,5.35-4.46,3.32.19,6.68.26,9.99-.02,4.18-.35,5.29,1.36,4.52,5.24-2.13,10.78-4.15,21.58-6.14,32.38-1.02,5.56-2.35,11.12-2.73,16.73-.67,9.72,6.17,13.9,15.04,9.43,6.6-3.33,10.36-9.21,13.23-15.74,5.17-11.72,6.53-24.39,9.04-36.77,2.69-13.32.62-11.02,13.73-11.2,8.32-.12,8.29-.03,6.8,7.97-4.07,21.93-8.21,43.85-12.09,65.81-.84,4.75-2.67,7.2-7.81,6.65-3.13-.34-6.32-.11-9.49-.08-2.61.02-3.64-1.17-3.13-3.75.65-3.23,1.25-6.46,2.16-11.21Z" fill="currentColor"/>
      <path d="m619.26,270c6-5.51,12.04-10.3,19.76-12.7,4.05-1.26,8.15-1.74,12.33-1.31,10.77,1.1,17.33,9.22,16.22,20.02-1.9,18.4-5.92,36.45-9.03,54.65-.6,3.53-2.23,4.82-5.68,4.62-3.32-.19-6.67-.21-9.99,0-3.98.25-4.83-1.46-4.18-5.11,2.29-12.94,4.4-25.92,6.52-38.89.48-2.95.66-5.96,1.15-8.91.69-4.16.62-8.34-3.16-10.83-4.06-2.68-8.69-2.29-12.76.3-8.16,5.19-12.84,13.18-15.15,22.16-2.94,11.42-5,23.09-6.97,34.74-.82,4.84-2.57,7.22-7.72,6.57-2.62-.33-5.33-.19-7.98-.04-4.1.24-5.3-1.5-4.5-5.44,2.49-12.23,4.8-24.5,7.19-36.75,2.04-10.45,4.19-20.89,6.07-31.37.62-3.48,2.35-4.84,5.74-4.72,3.33.12,6.66.12,9.99,0,4-.15,4.95,1.73,3.95,5.3-.71,2.54-1.2,5.14-1.79,7.71Z" fill="currentColor"/>
      <path d="m672.76,475.42c-14.51-.18-26.51-8.87-31.39-22.9-7.86-22.6,4.91-49.51,27.4-57.73,25.31-9.26,47.54,6.37,47.36,33.29-.15,22.92-15.08,41.97-36.46,46.46-2.27.48-4.61.6-6.91.88Zm23.3-48.84c-.12-3.82.05-7.65-.88-11.42-2.96-12.07-14.54-15.57-23.59-7.09-10.57,9.89-14.87,34.91-8.19,47.65,3.29,6.28,9.36,8.66,16.01,6.19,5.46-2.03,9.03-6.11,11.65-11.11,3.97-7.58,4.79-15.84,4.99-24.22Z" fill="currentColor"/>
      <path d="m439.82,240.04c-1.83,0-3.67-.02-5.5,0-12.96.12-10.18-1.36-12.76,10.5-1.24,5.69-1.82,11.52-3.01,17.22-.86,4.14.75,5.43,4.66,5.36,7-.13,14,.08,21-.05,4.35-.08,5.44,1.73,4.64,5.86-1.78,9.24-1.65,9.27-10.91,9.27-6.33,0-12.67.08-19-.02-3.04-.05-4.37,1.11-4.89,4.23-2.13,12.81-4.66,25.56-6.79,38.37-.66,3.95-2.11,5.98-6.43,5.59-3.47-.31-7.01-.31-10.49,0-4.4.39-5.05-1.62-4.35-5.35,5.72-30.61,11.26-61.26,17.07-91.85,2.3-12.12,2.56-12.08,15.04-12.08,11.67,0,23.33-.07,34.99.06,2.36.03,5.81-1.11,5.95,3.25.17,5.54-2.32,9.46-6.23,9.59-4.33.14-8.66.03-13,.03v.02Z" fill="currentColor"/>
      <path d="m761.76,336.31c-9.73.07-8.7.16-7.1-8.22,3.32-17.32,6.37-34.69,9.72-52.01.82-4.22.05-6.49-4.74-6.16-3.11.21-5.29-.77-4.79-4.51.43-3.25.1-7.34,5.17-6.64,5.77.79,7.43-2.03,8.11-7.16,1.08-8.18,3.65-15.88,9.64-22.03,7.51-7.71,20.05-10.53,30-6.54,1.84.74,5.09,1.27,3.84,4.1-1.38,3.15-1.18,8.07-6.49,8.21-1.82.05-3.66-.25-5.48-.22-5.22.09-8.84,2.64-10.77,7.45-.74,1.84-1.27,3.79-1.6,5.75-1.72,10.17-1.68,10.12,8.53,10.42,1.88.06,5.23-1.04,4.92,2.34-.3,3.32.18,7.88-4.83,8.67-2.6.41-5.32.3-7.98.18-3.56-.17-5.33,1.03-6,4.88-3.09,17.7-6.49,35.35-9.83,53-1.61,8.51-1.65,8.5-10.33,8.5Z" fill="currentColor"/>
      <path d="m803.08,474.12c-15.96.04-22.35-7.92-19.47-22.01,2.73-13.38,5.29-26.79,8.06-40.15.81-3.9.77-6.62-4.44-5.99-3,.36-4.17-1.01-3.56-4.2.92-4.83,1.72-9.37,8.46-8.13,2.11.39,3.43-.9,3.83-3.04.28-1.47.64-2.93.93-4.4,2.24-11.43,5.67-14.4,17.31-15.42,3.28-.29,3.18,1.66,2.89,3.73-.7,4.94-1.38,9.9-2.38,14.79-.71,3.46.55,4.57,3.83,4.43,3.16-.13,6.33.07,9.49-.02,3.44-.1,4.26,1.41,3.66,4.67-1.34,7.26-1.6,7.62-8.93,7.64-11.02.03-11.07.02-13.23,11.01-2.21,11.27-4.13,22.59-5.23,34.03-.82,8.51,2.7,11.55,10.78,9.58,1.79-.44,4.57-2.58,5.07,1.21.43,3.23,3.31,7.48-2.1,9.37-5.37,1.87-10.95,2.84-14.97,2.91Z" fill="currentColor"/>
      <path d="m528.84,405.22c2.78-2.97,5.07-5.76,7.72-8.16,6.33-5.72,14.49-6.3,20.58-1.88,2.21,1.6,2.8,3.12.87,5.29-1.32,1.49-2.65,3.01-3.75,4.67-2.91,4.38-6.14,6.68-12.16,6.16-8.78-.75-13.21,6.13-16.49,13.04-3.97,8.36-4.18,17.75-6.29,26.64-1.27,5.33-2.2,10.75-3.13,16.16-.51,2.96-2,4.28-5.06,4.21-18.71-.39-15.98,2.77-12.79-14.81,3.5-19.31,7.51-38.52,11.06-57.82.73-3.98,2.54-5.47,6.35-5.01.66.08,1.33,0,2,0q11.64-.02,11.1,11.5Z" fill="currentColor"/>
      <path d="m914.88,268.93c2.62-1.57,3.93-3.97,5.78-5.84,6.42-6.48,14.47-7.69,21.28-3.3,2.61,1.68,3.54,3.39,1.11,5.95-1.14,1.2-2.22,2.5-3.13,3.89-3.08,4.68-6.48,7.74-12.97,6.61-5.02-.87-9.23,2.15-12.22,6.4-3.31,4.71-5.45,9.9-6.56,15.53-2.15,10.95-4.4,21.87-6.33,32.86-.72,4.08-2.54,5.76-6.69,5.33-2.8-.29-5.68-.27-8.49,0-4.59.44-5.82-1.2-4.88-5.74,2.99-14.34,5.66-28.75,8.45-43.13,1.55-8.01,3.17-16.01,4.59-24.04.59-3.31,2.01-5.07,5.61-4.8,2.82.21,5.66.02,8.49.04,6.55.04,6.72.26,5.69,6.95-.15.97-.59,1.94.28,3.29Z" fill="currentColor"/>
      <path d="m480.23,270.44c3.42-3.58,5.77-6.4,8.49-8.82,5.7-5.09,13.13-5.82,18.96-2.24,2.94,1.8,4.08,3.74,1.39,6.75-2.33,2.6-4.53,5.34-6.62,8.14-1.49,2-3.16,2.46-5.61,2.04-7.66-1.32-13.18,1.89-17.14,8.41-2.81,4.63-4.61,9.57-5.61,14.87-1.92,10.14-4.15,20.23-5.78,30.42-.79,4.97-2.94,6.94-7.92,6.36-2.96-.34-6-.2-8.99-.03-3.28.18-4.09-1.34-3.52-4.26,4.51-23.05,9.04-46.09,13.44-69.15.63-3.29,2.27-4.48,5.47-4.26,2.49.17,5,.03,7.5.03q7.68,0,6.38,7.8c-.16.95-.22,1.91-.45,3.95Z" fill="currentColor"/>
      <path d="m749.53,403.63c2.9-2.51,5.97-5.27,9.16-7.91,5.02-4.16,12.97-4.55,18.21-1.14,2.71,1.76,3.69,3.59,1.36,6.45-2.1,2.58-3.99,5.33-5.84,8.1-1.26,1.88-2.71,2.56-5.03,2.17-8.79-1.46-14.54,2.63-18.62,10.17-4.82,8.89-5.21,18.84-7.38,28.36-1.25,5.51-2.35,11.07-3.26,16.65-.6,3.65-2.41,5.15-6.09,4.9-2.98-.21-6.01-.25-8.98.01-4.51.41-5.87-1.08-4.92-5.7,3.51-16.94,6.71-33.94,10.03-50.92,1.12-5.71,2.29-11.41,3.3-17.15.49-2.78,1.87-4.12,4.73-3.91.83.06,1.66,0,2.5,0q11-.05,10.83,9.91Z" fill="currentColor"/>
      <path d="m469.69,471.34c-10.88-.07-10.36,1.01-8.24-9.88,3.91-20.07,7.66-40.17,11.48-60.26q1.42-7.47,8.8-7.48c.5,0,1,0,1.5,0,12.56.08,11.37-1.22,9.04,10.83-3.84,19.91-7.68,39.83-11.53,59.74q-1.36,7.05-8.56,7.06c-.83,0-1.66,0-2.5,0Z"/>
      <path d="m489.11,381.16c-6.06.06-10.95-4.6-11.03-10.51-.08-6.3,6.52-12.92,12.85-12.9,5.25.01,9.61,4.89,9.55,10.69-.08,7.13-5.01,12.65-11.37,12.72Z" fill="currentColor"/>
    </g>
  </g>
</svg>