<svg viewBox="0 0 21 20" fill="none" xmlns="http://www.w3.org/2000/svg">
<path fill-rule="evenodd" clip-rule="evenodd" d="M6.21669 10.104L3.61669 8.34865C3.39187 8.19701 3.25507 7.9456 3.25002 7.67477V5.43685C3.24157 5.29697 3.30423 5.16224 3.41673 5.07842C3.52923 4.99461 3.67644 4.97298 3.80835 5.02088L4.33335 5.23719C4.56422 5.31943 4.74711 5.49897 4.83335 5.72803L5.50835 7.51671L9.08335 8.76462V2.94103C9.0749 2.80115 9.13756 2.66642 9.25006 2.5826C9.36256 2.49879 9.50977 2.47716 9.64169 2.52506L10.1667 2.74136C10.3976 2.8236 10.5804 3.00314 10.6667 3.23221L13.3 10.2455L16.4167 11.3353C17.0387 11.562 17.5451 12.0258 17.825 12.6248L18.2084 13.4568C18.2566 13.557 18.2626 13.6725 18.2251 13.7772C18.1875 13.8819 18.1094 13.9673 18.0084 14.0142H17.9417C17.5413 14.2017 17.0826 14.2227 16.6667 14.0724L7.30835 10.6531C6.92334 10.5154 6.55671 10.331 6.21669 10.104ZM19.0834 17.084V16.2521C19.0834 16.0224 18.8968 15.8361 18.6667 15.8361H2.83335C2.60324 15.8361 2.41669 16.0224 2.41669 16.2521V17.084C2.41669 17.3138 2.60324 17.5 2.83335 17.5H18.6667C18.8968 17.5 19.0834 17.3138 19.0834 17.084Z" fill="currentColor"/>
</svg>
