<svg width="36" height="32" viewBox="0 0 36 32" fill="none" xmlns="http://www.w3.org/2000/svg">
<path d="M3.59356 25.655H7.18713V31.9438L20.2138 25.655H32.342C33.2942 25.6521 34.2068 25.2727 34.88 24.5993C35.5532 23.9261 35.9329 23.0137 35.9357 22.0615V4.09356C35.933 3.14132 35.5536 2.22886 34.8802 1.55557C34.2068 0.882195 33.2944 0.5027 32.342 0.5H3.59356C2.64132 0.5027 1.72886 0.882195 1.05557 1.55557C0.38223 2.22886 0.0027 3.14132 0 4.09356V22.0615C0.002844 23.0137 0.38232 23.9261 1.0557 24.5993C1.72899 25.2727 2.64136 25.6521 3.59356 25.655ZM26.9518 10.9812C28.2749 10.9812 29.3476 12.0538 29.3476 13.377C29.3476 14.7 28.2749 15.7726 26.9518 15.7726C25.6288 15.7726 24.5561 14.7 24.5561 13.377C24.5561 12.0538 25.6288 10.9812 26.9518 10.9812ZM17.968 10.9812C19.291 10.9812 20.3636 12.0538 20.3636 13.377C20.3636 14.7 19.291 15.7726 17.968 15.7726C16.6448 15.7726 15.5722 14.7 15.5722 13.377C15.5722 12.0538 16.6448 10.9812 17.968 10.9812ZM8.98393 10.9812C10.307 10.9812 11.3796 12.0538 11.3796 13.377C11.3796 14.7 10.307 15.7726 8.98393 15.7726C7.6608 15.7726 6.58822 14.7 6.58822 13.377C6.58822 12.0538 7.6608 10.9812 8.98393 10.9812Z" fill="currentColor"/>
</svg>
