<?xml version="1.0" standalone="no"?>
<!DOCTYPE svg PUBLIC "-//W3C//DTD SVG 20010904//EN"
 "http://www.w3.org/TR/2001/REC-SVG-20010904/DTD/svg10.dtd">
<svg version="1.0" xmlns="http://www.w3.org/2000/svg"
 width="34.5px" height="35.5px" viewBox="0 0 345.000000 355.000000"
 preserveAspectRatio="xMidYMid meet">

<g transform="translate(0.000000,355.000000) scale(0.100000,-0.100000)"
fill="currentColor" stroke="none">
<path d="M1143 3533 c-55 -19 -136 -92 -162 -146 -90 -186 39 -399 250 -415
56 -4 75 -1 121 20 75 34 122 79 155 146 23 47 28 70 28 132 -1 64 -5 82 -29
122 -75 127 -231 188 -363 141z"/>
<path d="M925 2881 c-16 -10 -37 -27 -46 -37 -23 -27 -735 -1107 -754 -1143
-8 -17 -15 -48 -15 -71 0 -112 169 -169 242 -82 13 15 122 181 243 369 l220
341 3 -336 3 -337 -82 -325 -82 -325 -289 -280 c-348 -337 -360 -350 -365
-413 -8 -91 76 -172 180 -172 45 0 50 3 139 87 51 48 214 206 361 350 199 196
271 273 281 301 7 20 50 187 96 369 l82 333 33 0 32 0 268 -713 c156 -417 276
-722 288 -735 30 -33 94 -62 135 -62 54 0 107 36 138 93 24 46 26 54 17 101
-5 28 -136 387 -291 799 l-282 748 0 162 1 162 23 -45 c13 -25 32 -52 42 -61
11 -9 163 -98 339 -198 280 -159 324 -181 363 -181 24 0 57 8 74 18 36 20 68
79 68 123 0 67 -22 85 -334 262 l-294 169 -81 186 c-138 323 -209 476 -234
508 -37 46 -81 54 -298 54 -171 0 -198 -2 -224 -19z"/>
<path d="M1931 2266 c7 -7 449 -256 454 -256 3 0 5 59 5 130 l0 130 -232 0
c-127 0 -229 -2 -227 -4z"/>
<path d="M2570 1485 l0 -775 344 0 343 0 6 -82 c4 -46 7 -174 7 -285 l0 -203
90 0 90 0 0 1034 0 1034 -31 26 -31 26 -409 0 -409 0 0 -775z"/>
<path d="M1711 1606 c11 -28 91 -240 178 -471 l159 -420 171 -3 171 -2 0 360
c0 200 -4 360 -9 360 -5 0 -25 -7 -44 -15 -46 -19 -164 -19 -208 -1 -19 8
-125 66 -236 129 l-201 114 19 -51z"/>
</g>
</svg>
