<svg width="48" height="48" viewBox="0 0 48 48" fill="none" xmlns="http://www.w3.org/2000/svg">
<path id="Union" fill-rule="evenodd" clip-rule="evenodd" d="M1.88104 47.2288C2.34587 47.249 2.81069 47.0671 3.15426 46.7236C3.15426 46.7236 8.26736 41.5902 8.99492 40.8425C9.72247 40.0947 10.1671 39.6703 10.3288 39.5288V39.5086C10.4702 39.4076 10.5713 39.2863 10.6521 39.1246C10.733 38.963 10.7936 38.7811 10.834 38.5992C10.8946 38.3971 12.5923 31.4449 12.754 30.7779H13.4209C13.8251 31.8895 19.2413 46.6225 19.3222 46.7842C19.4839 47.249 19.8274 47.633 20.2922 47.8149C20.7369 48.0372 21.2421 48.0574 21.7069 47.8957C22.1718 47.7138 22.5355 47.3501 22.7376 46.9054C22.96 46.481 22.9802 45.9758 22.8185 45.511C22.7882 45.4099 21.2729 41.2531 19.7574 37.0956L19.7569 37.094C18.2411 32.9357 16.7252 28.7772 16.6949 28.6761C16.6747 28.6357 16.5332 28.1911 16.5332 28.1911V24.3916C16.5583 24.4251 16.6181 24.5765 16.6882 24.7539L16.6882 24.7539C16.7872 25.0047 16.9068 25.3074 16.9778 25.4021L16.9779 25.4022C17.1193 25.5638 17.2608 25.7255 17.4224 25.8467C17.5841 25.9074 24.2534 29.8483 24.2534 29.8483C24.6172 30.0504 25.0214 30.0908 25.4256 29.9696C25.8298 29.8483 26.1733 29.5856 26.3956 29.242C26.6382 28.8984 26.6988 28.4538 26.5775 28.0496C26.4765 27.6454 26.2137 27.2816 25.85 27.0593C25.7085 26.9987 20.3529 23.846 19.5849 23.3811C19.5049 23.1929 19.2935 22.6915 19.0152 22.0313C18.0979 19.8557 16.4538 15.9561 16.3917 15.8631C16.2705 15.5599 16.0482 15.3174 15.7652 15.1557C15.4823 14.994 15.1589 14.893 14.8356 14.9132H11.1978C10.9149 14.893 10.6521 14.9334 10.3894 15.0142C10.1267 15.1153 9.90437 15.2972 9.74269 15.5195L9.74267 15.5195L9.74266 15.5195C9.62141 15.6812 9.50016 15.8429 9.37891 16.0247C9.01513 16.5906 1.43643 28.373 1.39601 28.4336C1.15349 28.7772 1.09286 29.2218 1.19391 29.626C1.39601 30.4748 2.24482 31.0003 3.09364 30.8386C3.49783 30.7577 3.86161 30.5152 4.08392 30.1515C4.14455 30.0504 9.1566 22.1281 9.1566 22.1281V29.7068C9.14012 29.7892 8.86833 30.913 8.53846 32.277L8.53829 32.2777C8.05909 34.2591 7.4574 36.7469 7.33771 37.2855L0.506768 44.0963C0.1632 44.4196 -0.0186891 44.8844 0.00152083 45.3493C0.0217293 46.38 0.850335 47.2086 1.88104 47.2288ZM38.4003 46.4002V23.1992C38.4205 22.6334 37.9557 22.1483 37.3898 22.1281H37.3292H36.2581H28.5985V39.9128H36.3389L36.3793 46.4002H38.4003ZM38.9056 -0.00170898C33.8733 -0.00170898 29.8111 4.06048 29.8111 9.09274C29.8111 14.125 33.8733 18.1872 38.9056 18.1872C43.9378 18.1872 48 14.125 48 9.09274C48 4.06048 43.9378 -0.00170898 38.9056 -0.00170898ZM37.8951 10.5276L35.0455 13.3772L33.6106 11.9423L36.4602 9.09274L33.6106 6.24315L35.0455 4.80824L37.8951 7.65784L39.33 9.09274L37.8951 10.5276ZM43.5942 10.5276L40.7446 13.3772L39.3097 11.9423L42.1593 9.09274L39.3097 6.24315L40.7446 4.80824L43.5942 7.65784L45.0291 9.09274L43.5942 10.5276ZM24.9405 32.0714C24.3544 32.0714 23.7683 31.9299 23.2428 31.6268L18.8977 29.0601C19.12 29.6462 22.2324 38.1748 22.8589 39.8926H26.5775V31.647C26.3754 31.748 26.1531 31.8491 25.9308 31.9097C25.6276 32.0108 25.284 32.0714 24.9405 32.0714ZM26.5977 25.2203V22.1483H21.3633C22.0909 22.5728 26.3754 25.0788 26.5977 25.2203ZM17.18 10.8521C17.18 12.6709 15.7056 14.1452 13.8869 14.1452C12.0682 14.1452 10.5938 12.6709 10.5938 10.8521C10.5938 9.03341 12.0682 7.55905 13.8869 7.55905C15.7056 7.55905 17.18 9.03341 17.18 10.8521Z" fill="currentColor"/>
</svg>
