<?xml version="1.0" encoding="UTF-8"?>
<svg xmlns="http://www.w3.org/2000/svg" viewBox="10 7 102 102"><g fill="currentColor"><path d="M93 9a18 18 0 1 0 18 18A18 18 0 0 0 93 9zm-1.52 27.672l-8.887-8.128 3.738-4.086 4.718 4.313 9.207-10.483 4.162 3.654zM24 87.822V85H12v2a4 4 0 0 0 4 4h11.176A3.186 3.186 0 0 1 24 87.823zm72 0A3.186 3.186 0 0 1 92.824 91H104a4 4 0 0 0 4-4v-2H96z" style="fill: currentColor;"/><path d="M70 85h26V47.76a18.9 18.9 0 0 1-6 0V82H30V42h48.33a21.078 21.078 0 0 1-4.275-6h-46.88A3.186 3.186 0 0 0 24 39.176V85h46zm26 2.823V85H70v1a2 2 0 0 1-2 2H52a2 2 0 0 1-2-2v-1H24v2.823A3.186 3.186 0 0 0 27.176 91h65.648A3.186 3.186 0 0 0 96 87.823z" style="fill: currentColor;"/><path d="M96 87.823V85H70v1a2 2 0 0 1-2 2H52a2 2 0 0 1-2-2v-1H24v2.823A3.186 3.186 0 0 0 27.176 91h65.648A3.186 3.186 0 0 0 96 87.823zm-59.06-21.52l-1.604 1.61 4.183 4.177 6.44-3.378-9.02-2.41" style="fill: currentColor;"/><path d="M79.695 52.696c-.335.124-1.058.5-1.124.532l-9.476 4.967-24.747.726-2.418 2.434 14.093 3.696-15.155 7.944 10.86.007a1.506 1.506 0 0 0 .67-.14L81 57.86c.064-.037.782-.418 1.076-.622 2.056-1.433 3.32-3.4 2.81-4.372-.508-.97-2.844-1.048-5.19-.172z" style="fill: currentColor;"/></g></svg>
