<?xml version="1.0" encoding="UTF-8"?>
<svg width="36" height="32" id="Layer_2" data-name="Layer 2" xmlns="http://www.w3.org/2000/svg" viewBox="0 0 576 512">
  <g id="Layer_1-2" data-name="Layer 1">
    <path d="m576,35v340c-13.14,25.42-34.28,35.65-62.54,35.35-59.96-.64-119.93-.14-179.89-.28-6.35-.01-12,1.32-17.7,4.1-38.47,18.77-77.05,37.29-115.58,55.94-28.78,13.93-57.53,27.92-86.29,41.88h-2c0-31.6,0-63.21-.03-94.81,0-6.67-.37-7.01-7.12-7.02-16.63-.03-33.27,0-49.9-.02-10.88-.02-21.01-2.77-30.47-8.2-11.08-6.36-18.64-15.85-24.47-26.94V35c4.11-7.82,8.89-15.08,15.7-20.92C24.51,6.53,34.83,2.39,46,0h485c20.45,4.66,35.83,15.84,45,35Zm-316.7,199.43c0,21.99.09,43.99-.07,65.98-.03,4.65,1.36,6.55,6.28,6.47,14.99-.24,29.99-.24,44.98,0,4.92.08,6.29-1.81,6.28-6.46-.12-43.99-.06-87.97-.08-131.96,0-5.93-.57-6.47-6.69-6.49-14.5-.04-28.99-.03-43.49,0-6.87.01-7.2.37-7.21,7.49-.02,21.66,0,43.32,0,64.98Zm28.25-103.42c16.09.15,28.73-12.06,29.03-28.07.3-15.66-12.57-28.72-28.4-28.81-15.84-.09-28.78,12.69-28.78,28.43,0,15.76,12.41,28.3,28.15,28.45Z" fill="currentColor"/>
  </g>
</svg>