<svg width="24" height="24" viewBox="0 0 24 24" fill="none" xmlns="http://www.w3.org/2000/svg">
<path d="M12.72 15.7799C12.5795 15.9206 12.3888 15.9997 12.19 15.9999H11.81C11.6116 15.9976 11.4217 15.9188 11.28 15.7799L6.14997 10.6399C6.05532 10.546 6.00208 10.4182 6.00208 10.2849C6.00208 10.1516 6.05532 10.0238 6.14997 9.92992L6.85997 9.21992C6.95214 9.12586 7.07828 9.07285 7.20997 9.07285C7.34166 9.07285 7.46781 9.12586 7.55997 9.21992L12 13.6699L16.44 9.21992C16.5339 9.12526 16.6617 9.07202 16.795 9.07202C16.9283 9.07202 17.0561 9.12526 17.15 9.21992L17.85 9.92992C17.9446 10.0238 17.9979 10.1516 17.9979 10.2849C17.9979 10.4182 17.9446 10.546 17.85 10.6399L12.72 15.7799Z" fill="currentColor"/>
</svg>
