<svg viewBox="0 0 12 12" fill="none" xmlns="http://www.w3.org/2000/svg">
<path d="M8.92499 8.21993C8.97232 8.26687 8.99894 8.33077 8.99894 8.39743C8.99894 8.46409 8.97232 8.52798 8.92499 8.57493L8.57499 8.92493C8.52805 8.97225 8.46415 8.99888 8.39749 8.99888C8.33083 8.99888 8.26693 8.97225 8.21999 8.92493L5.99999 6.70493L3.77999 8.92493C3.73305 8.97225 3.66915 8.99888 3.60249 8.99888C3.53583 8.99888 3.47193 8.97225 3.42499 8.92493L3.07499 8.57493C3.02766 8.52798 3.00104 8.46409 3.00104 8.39743C3.00104 8.33077 3.02766 8.26687 3.07499 8.21993L5.29499 5.99993L3.07499 3.77993C3.02766 3.73298 3.00104 3.66909 3.00104 3.60243C3.00104 3.53577 3.02766 3.47187 3.07499 3.42493L3.42499 3.07493C3.47193 3.0276 3.53583 3.00098 3.60249 3.00098C3.66915 3.00098 3.73305 3.0276 3.77999 3.07493L5.99999 5.29493L8.21999 3.07493C8.26693 3.0276 8.33083 3.00098 8.39749 3.00098C8.46415 3.00098 8.52805 3.0276 8.57499 3.07493L8.92499 3.42493C8.97232 3.47187 8.99894 3.53577 8.99894 3.60243C8.99894 3.66909 8.97232 3.73298 8.92499 3.77993L6.70499 5.99993L8.92499 8.21993Z" fill="currentColor"/>
</svg>
