<?xml version="1.0" encoding="UTF-8"?>
<svg width="33" height="33" id="Layer_2" data-name="Layer 2" xmlns="http://www.w3.org/2000/svg" viewBox="0 0 512 512">
  <g id="Layer_1-2" data-name="Layer 1">
    <path d="m275,512h-38c-16.38-1.92-32.76-3.93-48.6-8.75-95.15-28.91-155.77-91.34-181.67-187.4-3.44-12.74-4.57-25.88-6.73-38.85,0-14,0-28,0-42,.31-1.8.71-3.58.91-5.39,3.37-30.42,11.18-59.6,25.13-86.92C61.16,73.91,115.98,29.05,190.3,8.09,205.26,3.87,220.61,1.83,236,0,249.33,0,262.67,0,276,0c1.14.23,2.27.56,3.42.66,18.85,1.57,37.36,5.05,55.19,11.31,89.67,31.47,146.79,93.09,170.89,185.15,3.26,12.45,4.36,25.25,6.5,37.88v42c-.31,1.8-.72,3.58-.92,5.39-2.09,18.94-5.58,37.65-12.14,55.54-32.85,89.59-95.63,145.91-188.44,168.57-11.68,2.85-23.63,3.91-35.51,5.5Zm-18.85-197.64c-44.65,0-89.3,0-133.95,0-7.51,0-7.78.36-4.26,7.16,10.7,20.66,24.72,38.74,42.73,53.54,33.16,27.25,71.01,39.66,113.86,34.01,48.83-6.44,84.78-33.06,111.43-73.43,3.49-5.28,6.55-10.82,9.32-16.53,1.51-3.11,1.07-4.77-2.69-4.73-1.5.02-3-.02-4.5-.02-43.98,0-87.96,0-131.95,0Zm-46.2-103.92c.04-17.58-14.34-32.1-31.67-31.97-17.31.13-32.02,14.89-31.94,32.05.08,17.1,14.49,31.36,31.75,31.43,17.87.07,31.81-13.72,31.85-31.51Zm123.73,31.51c17.59,0,32.13-14.41,31.96-31.68-.17-17.3-14.92-31.9-32.15-31.8-17.14.09-31.37,14.47-31.42,31.75-.05,17.83,13.8,31.73,31.61,31.74Z" fill="currentColor"/>
  </g>
</svg>