<svg width="40" height="36" viewBox="0 0 40 36" fill="none" xmlns="http://www.w3.org/2000/svg">
<g id="Group">
<path id="Vector" d="M9.01671 35.4436H20.8257C25.6592 35.4436 29.6508 31.6124 29.8873 26.8347H0.00090609C0.236507 31.6124 4.18282 35.4436 9.01671 35.4436ZM20.8253 16.8669H18.2767C17.1097 17.436 16.0073 18.1288 14.9883 18.9334C13.8459 19.8444 12.8283 20.9018 11.9617 22.0782C12.1795 21.1061 12.483 20.1551 12.8688 19.2365C13.2113 18.4138 13.622 17.6212 14.0966 16.8669H9.01625C4.18282 16.8669 0.236054 20.6977 0 25.4754H29.8873C29.6508 20.6977 25.6587 16.8669 20.8253 16.8669Z" fill="currentColor"/>
<path id="Vector_2" d="M23.4952 0.556152L24.2868 16.0233C24.3398 16.041 24.4127 16.0695 24.4961 16.1049C28.5856 17.547 31.3575 21.4621 31.3575 26.0758C31.3575 28.0014 31.0068 29.8105 30.1143 31.3655H36.7777C37.1809 31.3655 37.528 31.2277 37.8093 30.9541C38.0912 30.6732 38.2094 30.3478 38.2787 29.9799C38.4668 28.9873 40 0.556605 40 0.556605L23.4952 0.556152Z" fill="currentColor"/>
</g>
</svg>
