<svg viewBox="0 0 21 20" fill="none" xmlns="http://www.w3.org/2000/svg">
<path fill-rule="evenodd" clip-rule="evenodd" d="M4.22502 12.4894C3.94992 12.5186 3.6783 12.4093 3.50002 12.1976L2.05002 10.4302C1.95895 10.3277 1.92535 10.1863 1.96056 10.0538C1.99578 9.92126 2.0951 9.81524 2.22502 9.77153L2.75002 9.57977C2.97063 9.50518 3.21238 9.52634 3.41669 9.63813L5.15835 10.6219L8.26669 9.50474L4.55002 5.06103C4.45895 4.95854 4.42535 4.81718 4.46056 4.68465C4.49578 4.55212 4.5951 4.44611 4.72502 4.40239L5.25002 4.21064C5.47063 4.13604 5.71238 4.15721 5.91669 4.269L12.4584 7.96236L15.5667 6.83684C16.1919 6.61307 16.8799 6.643 17.4834 6.92022L18.3167 7.30373C18.4178 7.3507 18.4958 7.43623 18.5334 7.5412C18.571 7.64616 18.565 7.76182 18.5167 7.86232V7.92901C18.3236 8.31927 17.9857 8.61849 17.575 8.76273L9.15835 11.8308C8.77202 11.9646 8.37255 12.0568 7.96669 12.1059L4.22502 12.4894ZM18.5834 17.0832V16.2495C18.5834 16.0193 18.3968 15.8326 18.1667 15.8326H2.33335C2.10324 15.8326 1.91669 16.0193 1.91669 16.2495V17.0832C1.91669 17.3134 2.10324 17.5001 2.33335 17.5001H18.1667C18.3968 17.5001 18.5834 17.3134 18.5834 17.0832Z" fill="currentColor"/>
</svg>
