<svg width="20" height="20" viewBox="0 0 20 20" fill="none" xmlns="http://www.w3.org/2000/svg">
<g id="ico / 24 / communication / email_outlined">
<path id="Icon color" fill-rule="evenodd" clip-rule="evenodd" d="M16.6665 3.33325H3.33317C2.4127 3.33325 1.6665 4.07944 1.6665 4.99992V14.9999C1.6665 15.9204 2.4127 16.6666 3.33317 16.6666H16.6665C17.587 16.6666 18.3332 15.9204 18.3332 14.9999V4.99992C18.3332 4.07944 17.587 3.33325 16.6665 3.33325ZM16.6665 4.99992V7.41659L10.5415 11.7083C10.2158 11.9343 9.7839 11.9343 9.45817 11.7083L3.33317 7.41659V4.99992H16.6665ZM3.33317 9.16659V14.9999H16.6665V9.16659L11.3748 12.8666C10.549 13.4438 9.45063 13.4438 8.62484 12.8666L3.33317 9.16659Z" fill="currentColor"/>
</g>
</svg>
