<svg width="40" height="30" viewBox="0 0 40 30" fill="none" xmlns="http://www.w3.org/2000/svg">
<g id="Clip path group">
<mask id="mask0_2337_5971" style="mask-type:luminance" maskUnits="userSpaceOnUse" x="0" y="0" width="40" height="30">
<g id="clip0">
<path id="Vector" d="M40 0.737061H0V29.263H40V0.737061Z" fill="white"/>
</g>
</mask>
<g mask="url(#mask0_2337_5971)">
<g id="Group">
<path id="Vector_2" fill-rule="evenodd" clip-rule="evenodd" d="M40 9.3675V4.04383L39.9825 3.69865L39.9458 3.38981L39.8534 3.0628L39.7434 2.77196L39.6159 2.48128L39.4502 2.20877L39.2685 1.95443L39.0295 1.70009L38.792 1.50009L38.5355 1.30025L38.2422 1.13674L37.9681 0.991405L37.6574 0.882397L37.3275 0.791559L37.0167 0.75523L36.7044 0.737061H12.4484L9.79411 3.38981L7.15793 0.737061H3.29514L2.9839 0.75523L2.67282 0.791559L2.34326 0.882397L2.03203 0.991405L1.75745 1.13674L1.46454 1.30025L1.20828 1.50009L0.970201 1.70009L0.732266 1.95443L0.549161 2.20877L0.38438 2.48128L0.25625 2.77196L0.146455 3.0628L0.0549754 3.38981L0.0183251 3.69865L0 4.04383V9.51284L0.25625 9.64001L0.512511 9.78535L0.732266 9.93069L0.988526 10.1125L1.20828 10.276L1.44622 10.4577L1.64765 10.6575L1.84892 10.8574L2.03203 11.0754L2.19681 11.2752L2.36159 11.5114L2.5447 11.7477L2.69099 12.0021L2.81928 12.2564L2.94741 12.4926L3.07554 12.7651L3.14868 13.0378L3.24032 13.3285L3.33179 13.601L3.38678 13.8735L3.42327 14.1642L3.47825 14.4368L3.49657 14.7093V15V15.2725L3.47825 15.5632L3.42327 15.8359L3.38678 16.1265L3.33179 16.3991L3.24032 16.6716L3.14868 16.9622L3.07554 17.2348L2.94741 17.5074L2.81928 17.7436L2.69099 17.9979L2.5447 18.2341L2.36159 18.4885L2.19681 18.7248L2.03203 18.9246L1.84892 19.1426L1.64765 19.3425L1.44622 19.5423L1.20828 19.724L0.988526 19.8875L0.732266 20.0693L0.512511 20.2147L0.25625 20.3418L0 20.4872V25.9562L0.0183251 26.3014L0.0549754 26.6102L0.146455 26.9372L0.25625 27.2281L0.38438 27.5187L0.549161 27.7912L0.732266 28.0456L0.970201 28.2999L1.20828 28.4998L1.46454 28.6998L1.75745 28.8633L2.03203 29.0086L2.34326 29.1176L2.67282 29.2085L2.9839 29.2448L3.29514 29.263H7.50566L9.79411 26.9917L12.0824 29.263H36.7044L37.0167 29.2448L37.3275 29.2085L37.6574 29.1176L37.9681 29.0086L38.2422 28.8633L38.5355 28.6998L38.792 28.4998L39.0295 28.2999L39.2685 28.0456L39.4502 27.7912L39.6159 27.5187L39.7434 27.2281L39.8534 26.9372L39.9458 26.6102L39.9825 26.3014L40 25.9562V20.6325L39.7259 20.5235L39.4502 20.3782L39.1952 20.2328L38.9386 20.0875L38.6821 19.8875L38.4621 19.724L38.2247 19.5241L38.0048 19.3243L37.804 19.0881L37.5841 18.8883L37.4183 18.6338L37.2351 18.3976L37.0709 18.1433L36.9243 17.8708L36.7777 17.6346L36.6502 17.3257L36.5578 17.0531L36.4478 16.7624L36.3745 16.4717L36.3028 16.1992L36.247 15.9085L36.2104 15.5814L36.1928 15.2907V15V14.7093L36.2104 14.4187L36.247 14.1097L36.3028 13.819L36.3745 13.5283L36.4478 13.2376L36.5578 12.9468L36.6502 12.6743L36.7777 12.3654L36.9243 12.1293L37.0709 11.8567L37.2351 11.6024L37.4183 11.3661L37.5841 11.1117L37.804 10.9119L38.0048 10.6757L38.2247 10.4759L38.4621 10.276L38.6821 10.1125L38.9386 9.93069L39.1952 9.76718L39.4502 9.62184L39.7259 9.49467L40 9.3675ZM10.5812 25.7199H8.93371V22.6493H10.5812V25.7199ZM10.5812 19.5968H8.93371V16.5262H10.5812V19.5968ZM10.5812 13.4738H8.93371V10.4032H10.5812V13.4738ZM10.5812 7.35076H8.93371V4.28001H10.5812V7.35076ZM19.8805 22.4131L19.6606 22.3949L19.4422 22.3767L19.2398 22.3041L19.0199 22.2496L18.8383 22.1587L18.655 22.0316L18.4717 21.9044L18.306 21.7591L18.1785 21.6137L18.0319 21.45L17.9219 21.2684L17.8486 21.0685L17.7578 20.8687L17.7211 20.6507L17.6845 20.4327L17.6653 20.2328L17.6845 20.0147L17.7211 19.7967L17.7578 19.5968L17.8486 19.397L17.9219 19.1971L18.0319 19.0155L18.1785 18.852L18.306 18.6703L18.4717 18.5248L18.655 18.3976L18.8383 18.3068L19.0199 18.2159L19.2398 18.1251L19.4422 18.0888L19.6606 18.0524H19.8805H20.0829L20.3028 18.0888L20.5036 18.1251L20.7235 18.2159L20.9068 18.3068L21.1076 18.3976L21.2717 18.5248L21.4375 18.6703L21.5649 18.852L21.7116 19.0155L21.8215 19.1971L21.9124 19.397L21.9857 19.5968L22.0223 19.7967L22.059 20.0147L22.0781 20.2328L22.059 20.4327L22.0223 20.6507L21.9681 20.8687L21.9124 21.0685L21.8215 21.2684L21.7116 21.45L21.5649 21.6137L21.4375 21.7591L21.2717 21.9044L21.1076 22.0316L20.9068 22.1587L20.7235 22.2496L20.5036 22.3041L20.3028 22.3767L20.0829 22.3949L19.8805 22.4131ZM27.9171 22.6311L18.1418 9.16765L20.3028 7.62328L30.059 21.0867L27.9171 22.6311ZM27.9729 11.9476L27.7705 11.9294L27.5522 11.9112L27.3498 11.8567L27.1299 11.7841L26.9466 11.6751L26.7458 11.5842L26.5817 11.4569L26.4159 11.3116L26.2884 11.1481L26.161 10.9664L26.0319 10.8029L25.941 10.603L25.8853 10.4032L25.8119 10.1852L25.7944 9.98519L25.7753 9.76718L25.7944 9.53101L25.8119 9.33116L25.8853 9.11316L25.941 8.93148L26.0319 8.73165L26.161 8.54981L26.2884 8.38631L26.4159 8.2228L26.5817 8.0593L26.7458 7.95029L26.9466 7.84128L27.1299 7.75044L27.3498 7.67777L27.5522 7.62328L27.7705 7.58694H27.9729H28.1928L28.3936 7.62328L28.6136 7.67777L28.8335 7.75044L29.0167 7.84128L29.1984 7.95029L29.3817 8.0593L29.5474 8.2228L29.6749 8.38631L29.8215 8.54981L29.9315 8.73165L30.0048 8.93148L30.0956 9.11316L30.1323 9.33116L30.1881 9.53101V9.76718V9.98519L30.1323 10.1852L30.0956 10.4032L30.0048 10.5849L29.9315 10.8029L29.8215 10.9664L29.6749 11.1481L29.5474 11.3116L29.3817 11.4569L29.1984 11.5842L29.0167 11.6751L28.8335 11.7841L28.6136 11.8567L28.3936 11.9112L28.1928 11.9294L27.9729 11.9476Z" fill="currentColor"/>
</g>
</g>
</g>
</svg>
