<svg width="30" height="29" viewBox="0 0 30 29" fill="none" xmlns="http://www.w3.org/2000/svg">
<path d="M26.8323 15.2028L26.2135 15.4916C25.7712 15.7001 25.2884 15.8087 24.7993 15.8098L19.7082 15.8098L14.888 23.0458C14.819 23.1259 14.7442 23.2007 14.6641 23.2697C14.3637 23.5725 13.9533 23.7405 13.5269 23.7353L13.3265 23.7353C13.2196 23.7391 13.1162 23.6961 13.0437 23.6174C12.945 23.5188 12.9048 23.3759 12.9376 23.2403L15.4832 15.8039L11.0048 15.3914L8.19999 18.7148C8.04821 18.8624 7.84596 18.9466 7.6343 18.9505L7.00969 18.9505C6.88059 18.9502 6.75958 18.8875 6.68476 18.7823C6.60994 18.6771 6.5905 18.5422 6.63257 18.4202L8.05857 14.1422L6.63257 9.86418C6.5905 9.74211 6.60994 9.60725 6.68476 9.50204C6.75958 9.39682 6.88058 9.33419 7.00969 9.33385L7.6343 9.33385C7.84596 9.33771 8.04821 9.42198 8.19999 9.56955L10.9695 12.8458L15.4832 12.4805L12.9553 5.02639C12.9224 4.89079 12.9626 4.74787 13.0613 4.64927C13.1339 4.57058 13.2372 4.52753 13.3442 4.53141H13.5445C13.9809 4.5228 14.4013 4.69565 14.7054 5.00871C14.7854 5.07774 14.8603 5.15259 14.9293 5.23263L19.7082 12.4746L24.7993 12.4746C25.2884 12.4756 25.7712 12.5843 26.2135 12.7928L26.8323 13.0815C27.1262 13.2176 27.3147 13.5118 27.3154 13.8358L27.3154 14.4486C27.3147 14.7726 27.1262 15.0667 26.8323 15.2028Z" fill="currentColor"/>
</svg>
