<svg width="48" height="48" viewBox="0 0 48 48" fill="none" xmlns="http://www.w3.org/2000/svg">
<path fill-rule="evenodd" clip-rule="evenodd" d="M41.8622 14.957C42.0657 14.8538 42.6011 14.5825 42.8722 14.4814V14.4828C45.1406 13.636 47.3992 13.7114 47.8911 14.6492C48.383 15.5894 47.1611 17.4904 45.1741 18.8741C44.9319 19.0423 44.3918 19.3352 44.1994 19.4395C44.1662 19.4575 44.1433 19.4699 44.1342 19.475L16.4883 33.969C16.2856 34.0638 16.0638 34.1107 15.84 34.106L5.34438 34.0991L19.9923 26.4193L6.3705 22.8471L8.70731 20.4979L32.6248 19.7968L41.7859 14.9954C41.7963 14.9904 41.8232 14.9768 41.8622 14.957ZM1.54929 27.6325L10.2695 29.9615L10.2686 29.962L4.04288 33.2261L0 29.1896L1.54929 27.6325Z" fill="currentColor"/>
</svg>
