<svg width="36" height="40" viewBox="0 0 36 40" fill="none" xmlns="http://www.w3.org/2000/svg">
<path id="Union" fill-rule="evenodd" clip-rule="evenodd" d="M21.8119 13.9353C21.8119 11.9354 20.1848 10.3083 18.1849 10.3083H0.134766V0H18.1849C25.8688 0 32.1202 6.25137 32.1202 13.9353V19.0894H21.8119V13.9353ZM25.5981 22.7773C25.5981 21.9165 26.2984 21.2162 27.1592 21.2162C28.02 21.2162 28.7203 21.9165 28.7203 22.7773C28.7203 23.6381 28.02 24.3384 27.1592 24.3384C26.2984 24.3384 25.5981 23.6381 25.5981 22.7773ZM25.8467 31.1397C25.8467 30.416 26.4354 29.8273 27.1591 29.8273C27.8827 29.8273 28.4714 30.416 28.4714 31.1397C28.4714 31.8633 27.8827 32.452 27.1591 32.452C26.4354 32.452 25.8467 31.8633 25.8467 31.1397ZM27.1591 33.7962C26.4354 33.7962 25.8467 34.3849 25.8467 35.1085C25.8467 35.8321 26.4354 36.4208 27.1591 36.4208C27.8827 36.4208 28.4714 35.8321 28.4714 35.1085C28.4714 34.3849 27.8827 33.7962 27.1591 33.7962ZM26.0951 38.9359C26.0951 38.3492 26.5724 37.8719 27.1591 37.8719C27.7458 37.8719 28.2231 38.3492 28.2231 38.9359C28.2231 39.5226 27.7458 39.9999 27.1591 39.9999C26.5724 39.9999 26.0951 39.5226 26.0951 38.9359ZM27.1592 25.4683C26.2984 25.4683 25.5981 26.1686 25.5981 27.0294C25.5981 27.8902 26.2984 28.5905 27.1592 28.5905C28.02 28.5905 28.7203 27.8902 28.7203 27.0294C28.7203 26.1686 28.02 25.4683 27.1592 25.4683ZM33.271 29.8273C33.9946 29.8273 34.5833 30.416 34.5833 31.1397C34.5833 31.8633 33.9946 32.452 33.271 32.452C32.5474 32.452 31.9586 31.8633 31.9586 31.1397C31.9586 30.416 32.5474 29.8273 33.271 29.8273ZM35.3622 35.1085C35.3622 34.3849 34.7735 33.7962 34.0499 33.7962C33.3263 33.7962 32.7376 34.3849 32.7376 35.1085C32.7376 35.8321 33.3263 36.4208 34.0499 36.4208C34.7735 36.4208 35.3622 35.8321 35.3622 35.1085ZM33.7369 38.9359C33.7369 38.3492 34.2142 37.8719 34.8008 37.8719C35.3876 37.8719 35.8649 38.3492 35.8649 38.9359C35.8649 39.5226 35.3876 39.9999 34.8008 39.9999C34.2142 39.9999 33.7369 39.5226 33.7369 38.9359ZM33.1329 22.7773C33.1329 21.9165 32.4326 21.2162 31.5718 21.2162C30.711 21.2162 30.0107 21.9165 30.0107 22.7773C30.0107 23.6381 30.711 24.3384 31.5718 24.3384C32.4326 24.3384 33.1329 23.6381 33.1329 22.7773ZM32.4638 25.4683C33.3245 25.4683 34.0249 26.1686 34.0249 27.0294C34.0249 27.8902 33.3245 28.5905 32.4638 28.5905C31.603 28.5905 30.9027 27.8902 30.9027 27.0294C30.9027 26.1686 31.603 25.4683 32.4638 25.4683ZM20.6426 29.8273C19.919 29.8273 19.3302 30.416 19.3302 31.1397C19.3302 31.8633 19.919 32.452 20.6426 32.452C21.3662 32.452 21.9549 31.8633 21.9549 31.1397C21.9549 30.416 21.3662 29.8273 20.6426 29.8273ZM18.6226 35.1085C18.6226 34.3849 19.2113 33.7962 19.9349 33.7962C20.6585 33.7962 21.2472 34.3849 21.2472 35.1085C21.2472 35.8321 20.6585 36.4208 19.9349 36.4208C19.2113 36.4208 18.6226 35.8321 18.6226 35.1085ZM19.1121 37.8719C18.5255 37.8719 18.0481 38.3492 18.0481 38.9359C18.0481 39.5226 18.5255 39.9999 19.1121 39.9999C19.6989 39.9999 20.1762 39.5226 20.1762 38.9359C20.1762 38.3492 19.6989 37.8719 19.1121 37.8719ZM20.78 22.7773C20.78 21.9165 21.4804 21.2162 22.3411 21.2162C23.2019 21.2162 23.9023 21.9165 23.9023 22.7773C23.9023 23.6381 23.2019 24.3384 22.3411 24.3384C21.4804 24.3384 20.78 23.6381 20.78 22.7773ZM21.4494 25.4683C20.5886 25.4683 19.8883 26.1686 19.8883 27.0294C19.8883 27.8902 20.5886 28.5905 21.4494 28.5905C22.3102 28.5905 23.0105 27.8902 23.0105 27.0294C23.0105 26.1686 22.3102 25.4683 21.4494 25.4683Z" fill="currentColor"/>
</svg>
