<svg width="40" height="26" viewBox="0 0 40 26" fill="none" xmlns="http://www.w3.org/2000/svg">
<path id="Union" fill-rule="evenodd" clip-rule="evenodd" d="M37.6638 3.12749C39.124 4.59184 39.9537 6.56914 39.9757 8.637C39.9842 8.9061 39.9891 9.09146 39.9959 9.3473L39.9996 9.48865V23.4567C40.0045 23.6864 39.9628 23.9147 39.8771 24.1278C39.7915 24.341 39.6636 24.5346 39.5011 24.6971C39.3387 24.8595 39.1451 24.9874 38.9319 25.0731C38.7187 25.1588 38.4904 25.2004 38.2608 25.1956C36.033 25.21 31.3092 24.9934 26.3132 15.4324C26.1686 15.2011 26.0515 14.9537 25.9643 14.6952H14.0368C13.9493 14.9539 13.8318 15.2016 13.6868 15.433C8.69077 24.995 3.96697 25.2139 1.73923 25.1995C1.50956 25.2043 1.28127 25.1626 1.06811 25.077C0.854955 24.9913 0.661328 24.8634 0.498885 24.701C0.336441 24.5385 0.208538 24.3449 0.122868 24.1317C0.0371978 23.9186 -0.00446742 23.6903 0.000379112 23.4606V9.49254C0.00156245 9.44772 0.00267685 9.40532 0.0037433 9.36475C0.0106876 9.10056 0.0155986 8.91373 0.0242671 8.63922C0.0458352 6.57107 0.875364 4.59335 2.33562 3.12864C3.79587 1.66392 5.77104 0.828362 7.83912 0.800482C9.60931 0.843967 11.3204 1.44597 12.7279 2.52045H27.2721C28.6795 1.44578 30.3906 0.843572 32.1609 0.799927C34.2287 0.827799 36.2036 1.66313 37.6638 3.12749ZM5.41112 12.2221C6.12605 12.6998 6.96655 12.9547 7.82634 12.9547V12.9519C8.97933 12.9519 10.0851 12.4939 10.9004 11.6787C11.7158 10.8635 12.1739 9.75776 12.174 8.60478C12.1736 7.74498 11.9182 6.90462 11.4402 6.18993C10.9622 5.47525 10.2831 4.91834 9.4886 4.58962C8.69412 4.26089 7.82001 4.17511 6.97679 4.34312C6.13356 4.51112 5.35909 4.92538 4.75127 5.5335C4.14346 6.14163 3.7296 6.91632 3.56202 7.75963C3.39445 8.60293 3.48068 9.477 3.80981 10.2713C4.13894 11.0656 4.6962 11.7445 5.41112 12.2221ZM29.7582 12.2898C30.4732 12.7675 31.3138 13.0225 32.1737 13.0225L32.1714 13.0219C32.7425 13.0222 33.3081 12.91 33.8358 12.6917C34.3635 12.4733 34.843 12.1532 35.247 11.7495C35.6509 11.3458 35.9714 10.8665 36.19 10.3389C36.4087 9.81134 36.5213 9.24586 36.5214 8.67478C36.5214 7.81488 36.2664 6.9743 35.7886 6.25933C35.3109 5.54435 34.6319 4.9871 33.8375 4.65803C33.043 4.32896 32.1688 4.24287 31.3255 4.41062C30.4821 4.57838 29.7074 4.99246 29.0994 5.60049C28.4913 6.20853 28.0773 6.98321 27.9095 7.82658C27.7417 8.66996 27.8278 9.54413 28.1569 10.3386C28.486 11.133 29.0432 11.812 29.7582 12.2898ZM6.95716 6.24986H8.69602V7.98871H10.4349V9.72757H8.69602V11.4664H6.95716V9.72757H5.2183V7.98871H6.95716V6.24986ZM31.3039 6.24986H29.5651V7.98871H31.3039V6.24986ZM34.7816 9.72757H33.0428V11.4664H34.7816V9.72757Z" fill="currentColor"/>
</svg>
