<?xml version="1.0" encoding="UTF-8"?>
<svg xmlns="http://www.w3.org/2000/svg" viewBox="12 12 98 98"><g fill="currentColor"><path d="M24.83 47v12h14a14.135 14.135 0 0 0-14-12zm73.532 15l-.14.002c-.44.002-.88.01-1.32.032a28.987 28.987 0 0 0-17.448 6.906 29.535 29.535 0 0 0-1.774 1.627l-.11.11c-.916.92-2.75 2.792-2.905 2.95a211.533 211.533 0 0 1-4.343 4.34l29.51.027V92h6V62h-7.47z" style="fill: currentColor;"/><path d="M42.362 77.974l1.5.003v2.495a6.033 6.033 0 0 0 .122 1.21 5.995 5.995 0 0 0 1.636 3.032A6.008 6.008 0 0 0 47.527 86a7.042 7.042 0 0 0 3.035.656c4.74 0 10.355-4.097 15.392-8.693 2.366-2.158 4.605-4.425 6.566-6.432.16-.163 2.16-2.204 3.04-3.084A32.078 32.078 0 0 1 98.36 59h7.47a6 6 0 0 0-6-5.972h-50a6 6 0 0 0-6 6v2.98h-1.5l-1.5.002-19 .015V35h-6v57h6V77.922l19.03.048z" style="fill: currentColor;"/></g></svg>
