<svg width="17" height="16" viewBox="0 0 17 16" fill="none" xmlns="http://www.w3.org/2000/svg">
<g id="ico / 24 / actions / info_outined">
<path id="Icon color" fill-rule="evenodd" clip-rule="evenodd" d="M1.83337 7.99998C1.83337 4.31808 4.81814 1.33331 8.50004 1.33331C10.2682 1.33331 11.9638 2.03569 13.2141 3.28593C14.4643 4.53618 15.1667 6.23187 15.1667 7.99998C15.1667 11.6819 12.1819 14.6666 8.50004 14.6666C4.81814 14.6666 1.83337 11.6819 1.83337 7.99998ZM3.16671 7.99998C3.16671 10.9455 5.55452 13.3333 8.50004 13.3333C9.91453 13.3333 11.2711 12.7714 12.2713 11.7712C13.2715 10.771 13.8334 9.41447 13.8334 7.99998C13.8334 5.05446 11.4456 2.66665 8.50004 2.66665C5.55452 2.66665 3.16671 5.05446 3.16671 7.99998ZM9.16671 8.33331C9.16671 8.14922 9.01747 7.99998 8.83337 7.99998H8.16671C7.98261 7.99998 7.83337 8.14922 7.83337 8.33331V10.3333C7.83337 10.5174 7.98261 10.6666 8.16671 10.6666H8.83337C9.01747 10.6666 9.16671 10.5174 9.16671 10.3333V8.33331ZM8.83337 5.33331C9.01747 5.33331 9.16671 5.48255 9.16671 5.66665V6.33331C9.16671 6.51741 9.01747 6.66665 8.83337 6.66665H8.16671C7.98261 6.66665 7.83337 6.51741 7.83337 6.33331V5.66665C7.83337 5.48255 7.98261 5.33331 8.16671 5.33331H8.83337Z" fill="currentColor" fill-opacity="0.5"/>
</g>
</svg>
