<svg width="40" height="38" viewBox="0 0 40 38" fill="none" xmlns="http://www.w3.org/2000/svg">
<path id="Union" fill-rule="evenodd" clip-rule="evenodd" d="M12.6661 4.42402C12.6661 6.43653 11.0346 8.068 9.02213 8.068C7.00961 8.068 5.37815 6.43653 5.37815 4.42402C5.37815 2.4115 7.00961 0.780029 9.02213 0.780029C11.0346 0.780029 12.6661 2.4115 12.6661 4.42402ZM10.7516 9.41458L9.22219 9.73004C9.05714 9.76546 8.89524 9.81421 8.73806 9.8758C9.13514 10.43 9.40886 11.0628 9.54078 11.7316L10.4591 16.397H15.3264L14.4414 11.842C14.2739 11.0308 13.7911 10.3194 13.0992 9.86423C12.4072 9.40901 11.5628 9.24727 10.7516 9.41458ZM39.485 28.0733L30.7509 18.2528C29.9127 17.2507 29.2214 16.9175 28.1152 16.9175H25.5936C26.3568 17.312 26.9961 17.9097 27.4411 18.6446C27.8861 19.3795 28.1194 20.223 28.1152 21.0821V35.1375C28.1152 35.6897 28.3346 36.2194 28.7251 36.6099C29.1156 37.0004 29.6452 37.2198 30.1975 37.2198C30.7498 37.2198 31.2794 37.0004 31.6699 36.6099C32.0604 36.2194 32.2798 35.6897 32.2798 35.1375V25.965L36.2949 30.7491C36.4685 30.9651 36.6835 31.1442 36.9272 31.2761C37.171 31.4079 37.4386 31.4898 37.7144 31.5169C37.9902 31.544 38.2686 31.5158 38.5333 31.4339C38.7981 31.352 39.0438 31.2181 39.2561 31.04C39.4684 30.8619 39.6431 30.6432 39.7698 30.3968C39.8965 30.1503 39.9727 29.8811 39.9941 29.6048C40.0154 29.3285 39.9813 29.0507 39.8939 28.7877C39.8065 28.5248 39.6675 28.2819 39.485 28.0733ZM26.5475 34.0965V21.0823C26.545 20.2547 26.2152 19.4617 25.6299 18.8765C25.0447 18.2912 24.2517 17.9614 23.4241 17.9589H9.17402L8.00795 12.0333C7.8396 11.1912 7.34495 10.45 6.63198 9.97139C5.91902 9.49279 5.04566 9.31572 4.20258 9.47882L2.61381 9.79116C1.77163 9.95926 1.03023 10.4539 0.551585 11.1669C0.0729451 11.8799 -0.104015 12.7534 0.0593733 13.5965L3.75281 34.0965C4.20831 36.1138 5.15835 37.22 6.87623 37.22H23.4241C24.2517 37.2175 25.0447 36.8876 25.6299 36.3024C26.2152 35.7172 26.545 34.9242 26.5475 34.0965Z" fill="currentColor"/>
</svg>
