<svg width="48" height="48" viewBox="0 0 48 48" fill="none" xmlns="http://www.w3.org/2000/svg">
<path d="M9.92685 8.38641C9.7478 8.38642 9.57549 8.45729 9.44503 8.5846C9.31457 8.71191 9.23576 8.88607 9.22468 9.07159L8.6481 18.8545C8.38868 23.2606 11.3184 23.8896 11.3184 27.895C11.3184 32.4296 10.486 31.7149 10.4076 44.0796C10.4059 44.3308 10.452 44.58 10.5433 44.8127C10.6346 45.0454 10.7693 45.257 10.9397 45.4355C11.1101 45.614 11.3127 45.7557 11.5361 45.8526C11.7594 45.9495 11.9989 45.9996 12.241 46H13.7306C13.9727 45.9997 14.2123 45.9497 14.4358 45.8529C14.6592 45.7561 14.862 45.6143 15.0324 45.4359C15.2029 45.2574 15.3377 45.0457 15.4291 44.8129C15.5204 44.5802 15.5666 44.3309 15.5648 44.0796C15.4869 31.7149 14.6541 32.4291 14.6541 27.8946C14.6541 23.8882 17.5861 23.2601 17.3262 18.854L16.7487 9.07112C16.7356 8.88265 16.6526 8.7068 16.5172 8.5805C16.3818 8.4542 16.2046 8.38729 16.0227 8.39382C15.8408 8.40034 15.6684 8.47981 15.5417 8.61551C15.4151 8.75121 15.344 8.9326 15.3434 9.12155L15.4186 19.3288H13.9144L13.6898 9.09871C13.6851 8.90842 13.609 8.72755 13.4777 8.59468C13.3464 8.4618 13.1703 8.38744 12.9869 8.38744C12.8036 8.38744 12.6274 8.4618 12.4961 8.59468C12.3648 8.72755 12.2887 8.90842 12.2841 9.09871L12.0595 19.3288H10.5561L10.6304 9.11965C10.6312 9.0234 10.6137 8.92792 10.5789 8.83872C10.5441 8.74952 10.4926 8.66835 10.4274 8.59989C10.3622 8.53143 10.2846 8.47703 10.1991 8.43982C10.1136 8.40261 10.0219 8.38333 9.92914 8.38308L9.92685 8.38641ZM21.7257 17.9028C21.7257 22.1852 24.0174 25.5159 24.0174 27.895C24.0174 32.4282 22.7689 31.7149 22.6516 44.0729C22.649 44.3247 22.6945 44.5746 22.7855 44.808C22.8764 45.0414 23.011 45.2539 23.1815 45.433C23.3519 45.6122 23.5548 45.7545 23.7786 45.8518C24.0023 45.9492 24.2423 45.9995 24.4849 46H25.8507C26.337 46 26.8033 45.7995 27.1471 45.4425C27.4909 45.0856 27.6841 44.6015 27.6841 44.0967V7.91059C23.1007 7.91059 21.7257 13.1422 21.7257 17.9028ZM39.0278 4.72164L36.5171 4.7264L35.7461 2.24643C35.7239 2.17484 35.6804 2.11242 35.6218 2.06814C35.5633 2.02386 35.4927 2 35.4203 2C35.3478 2 35.2772 2.02386 35.2187 2.06814C35.1601 2.11242 35.1166 2.17484 35.0944 2.24643L34.3235 4.72688L31.8132 4.71926C31.7406 4.71894 31.6699 4.74254 31.6111 4.78666C31.5523 4.83079 31.5085 4.89316 31.4861 4.96478C31.4637 5.03639 31.4637 5.11356 31.4863 5.18514C31.5088 5.25672 31.5527 5.31902 31.6115 5.36305L33.6433 6.89043L32.8628 9.36755C32.8402 9.439 32.8401 9.51602 32.8624 9.58755C32.8847 9.65907 32.9283 9.72142 32.9868 9.76562C33.0454 9.80983 33.116 9.83361 33.1884 9.83356C33.2608 9.83351 33.3313 9.80962 33.3899 9.76534L35.4184 8.22844L37.4461 9.76534C37.5046 9.80971 37.5752 9.83366 37.6477 9.83371C37.7202 9.83377 37.7909 9.80994 37.8495 9.76566C37.9081 9.72137 37.9516 9.65892 37.9739 9.58729C37.9961 9.51566 37.9959 9.43855 37.9732 9.36708L37.1931 6.88996L39.2281 5.36257C39.2864 5.31834 39.3297 5.25613 39.3518 5.18482C39.374 5.11351 39.3739 5.03675 39.3515 4.96551C39.3292 4.89427 39.2857 4.83218 39.2273 4.78813C39.1689 4.74408 39.0986 4.72031 39.0264 4.72022L39.0278 4.72164Z" fill="currentColor"/>
</svg>
