<svg width="48" height="48" viewBox="0 0 48 48" fill="none" xmlns="http://www.w3.org/2000/svg">
<path fill-rule="evenodd" clip-rule="evenodd" d="M32.1316 14.9565C32.1316 16.0423 31.8872 17.2456 31.4783 18.4865C31.4639 18.5275 31.4496 18.5688 31.4353 18.6102C31.3789 18.7724 31.322 18.9365 31.2621 19.0975C31.1728 19.3419 31.0787 19.5911 30.98 19.8402C30.9283 19.9718 30.8719 20.1081 30.8155 20.2444C30.5241 20.926 30.1998 21.6075 29.852 22.2844C29.6545 22.6698 29.4477 23.0552 29.2362 23.4312C28.8837 24.0705 28.517 24.6956 28.1504 25.2926C26.0917 28.6486 24 31.2197 24 31.2197C24 31.2197 21.5229 28.1692 19.3044 24.3807C19.0223 23.8966 18.7403 23.4031 18.4724 22.9001C17.8002 21.6545 17.1986 20.3619 16.738 19.0975C16.2021 17.6404 15.8684 16.2209 15.8684 14.9565C15.8684 13.9412 16.047 12.9777 16.3901 12.0846C17.5464 9.01527 20.5077 6.82959 23.9812 6.82959H24.0141C26.5053 6.82959 28.738 7.95769 30.2233 9.72499L30.2235 9.72524C30.3503 9.88028 30.4772 10.0353 30.5946 10.1997C30.6557 10.2843 30.7121 10.3643 30.7685 10.4489C30.933 10.698 31.0882 10.9612 31.2292 11.2291C31.3702 11.5017 31.4971 11.779 31.6052 12.0658C31.9436 12.9541 32.1316 13.9224 32.1316 14.9377V14.9565ZM28.7756 19.0975L28.973 18.8578C29.7956 17.8002 30.275 16.47 30.275 15.0364C30.2703 11.5676 27.4595 8.76613 24 8.76143C20.5358 8.76143 17.725 11.5676 17.725 15.0364C17.725 16.5828 18.2844 18.007 19.2245 19.0975C20.0235 20.0423 21.0999 20.7473 22.3361 21.0858C22.8625 21.2315 23.4219 21.3114 24 21.3114C25.9178 21.3114 27.6334 20.4512 28.7756 19.0975ZM40.7474 21.5746L32.9636 18.98C32.8931 19.1962 32.8179 19.4124 32.738 19.6333C32.5969 20.0235 32.4418 20.423 32.2585 20.8601C31.9577 21.5605 31.6193 22.2844 31.2479 23.0035C31.2235 23.0558 31.1966 23.1055 31.1689 23.1564L31.1398 23.2103L31.7979 37.1046L44 41.1704L40.7474 21.5746ZM6.90481 19.4407L16.5875 22.6698C16.7474 22.9894 16.9166 23.3137 17.0905 23.6428L17.1503 23.7528C17.2136 23.8697 17.2763 23.9852 17.3443 24.1034L16.5593 41.1704L4 36.9871L6.90481 19.4407ZM24 33.7062L25.2174 32.2115L25.2368 32.1873C25.4666 31.9004 27.4228 29.4575 29.4007 26.2468L30.0118 36.8273L18.416 41.1704L19.1587 27.1445C20.9456 29.9207 22.5867 31.963 22.7698 32.1909L22.7698 32.1909L22.7826 32.2068L24 33.7062Z" fill="currentColor"/>
</svg>
