<?xml version="1.0" encoding="UTF-8"?>
<!-- Generator: Adobe Illustrator 23.0.3, SVG Export Plug-In . SVG Version: 6.00 Build 0)  -->
<svg xmlns="http://www.w3.org/2000/svg" xmlns:xlink="http://www.w3.org/1999/xlink" version="1.1" x="0px" y="0px" viewBox="12 12 96 96">

<g id="icon"  fill="currentColor" >
	<path fill="currentColor" d="M105,33H15c-1.6546021,0.0054932-2.9945068,1.3453979-3,3v48c0.0054932,1.654541,1.3453979,2.9945068,3,3   h90c1.6546021-0.0054932,2.9945068-1.345459,3-3V36C107.9945068,34.3453979,106.6546021,33.0054932,105,33z M58.2288208,61.9951782   C58.2192993,61.9973755,58.2097168,61.9989624,58.2000122,62H51L37.4000244,74.7999878H35L42.5999756,62h-2.3999634   c-1.5759888-0.0452271-6.2880249-0.9407959-7.6000366-1.2000122l-3.5999756,4h-2L29.7999878,60L27,55.2000122h2l3.5999756,4   C33.9171753,58.9400024,38.6256104,58.045166,40.2000122,58h2.3999634L35,45.2000122h2.4000244L51,58h7.2000122   c0.0097046,0.0009766,0.0192871,0.0025635,0.0288086,0.0047607C60.8831787,58.0527954,63,58.9263916,63,60   S60.8831787,61.9472046,58.2288208,61.9951782z M78,81c-1.6568604,0-3-1.3431396-3-3s1.3431396-3,3-3s3,1.3431396,3,3   S79.6568604,81,78,81z M78,69c-1.6568604,0-3-1.3431396-3-3s1.3431396-3,3-3s3,1.3431396,3,3S79.6568604,69,78,69z M78,57   c-1.6568604,0-3-1.3431396-3-3s1.3431396-3,3-3s3,1.3431396,3,3S79.6568604,57,78,57z M78,45c-1.6568604,0-3-1.3431396-3-3   s1.3431396-3,3-3s3,1.3431396,3,3S79.6568604,45,78,45z"  />
</g>
</svg>
