<?xml version="1.0" encoding="UTF-8"?>
<!-- Generator: Adobe Illustrator 22.1.0, SVG Export Plug-In . SVG Version: 6.00 Build 0)  -->
<svg xmlns="http://www.w3.org/2000/svg" xmlns:xlink="http://www.w3.org/1999/xlink" version="1.1" x="0px" y="0px" viewBox="0 0 120 120" enable-background="new 0 0 120 120" xml:space="preserve" width="48px" height="48px">

<g id="icon"  fill="currentColor" >
	<circle fill="currentColor" cx="32.0625" cy="43.1080818" r="9.1380205"  />
	<circle fill="currentColor" cx="87.9375" cy="43.1080818" r="9.1380205"  />
	<path fill="currentColor" d="M49.4278564,61.3359375l0.3859863-0.0026245c-2.036438-2.8572388-5.3129272-4.7766113-9.0726929-4.9335938   H23.3838501c-6.2884521,0.2625732-11.2530518,5.43396-11.2588501,11.7279053v9.0403442h20.9385986   C33.7052002,68.5515747,40.6561279,61.7022095,49.4278564,61.3359375z"  />
	<path fill="currentColor" d="M107.875,68.1276245c-0.0057983-6.2939453-4.9703979-11.465332-11.2588501-11.7279053H79.2588501   c-3.7597656,0.1569824-7.0362549,2.076355-9.0726929,4.9335938l0.3860474,0.0026245   c8.770813,0.3662109,15.7214355,7.2143555,16.3640747,15.8320312H107.875V68.1276245z"  />
	<path fill="currentColor" d="M83.9358521,77.1679688C83.2996826,70.18396,77.5844116,64.6313477,70.4470215,64.333313h-20.894043   c-7.1373291,0.2980347-12.8526611,5.850647-13.4888306,12.8346558C36.0255737,77.5911255,36.0004272,78.0181274,36,78.4509277   V89.333313h48V78.4509277C83.9995728,78.0181274,83.9743652,77.5911255,83.9358521,77.1679688z"  />
	<g  fill="currentColor" >
		<circle fill="currentColor" cx="60" cy="48.333313" r="11"  />
	</g>
</g>
</svg>
