<svg width="40" height="46" viewBox="0 0 40 46" fill="none" xmlns="http://www.w3.org/2000/svg">
<path id="Union" fill-rule="evenodd" clip-rule="evenodd" d="M24.7503 8.17336C24.7503 3.96272 28.1646 0.548462 32.3752 0.548462C36.5859 0.548462 40.0001 3.96272 40.0001 8.17336C40.0001 12.384 36.5859 15.7983 32.3752 15.7983C29.643 15.7983 27.2454 14.358 25.9025 12.1976C25.6611 11.8206 25.4577 11.4182 25.2925 10.9988C24.9409 10.1262 24.7503 9.17306 24.7503 8.17336ZM31.2569 11.3758L35.5141 8.66473C35.9377 8.39362 35.9377 7.95308 35.5141 7.68196L31.2569 4.9709C31.1256 4.89042 31.0027 4.84804 30.8926 4.84804C30.6511 4.84804 30.4817 5.04715 30.4817 5.39875V10.948C30.4817 11.2996 30.6511 11.4987 30.8926 11.4987C31.0027 11.4987 31.1256 11.4563 31.2569 11.3758ZM21.3952 28.299L25.9363 32.84V32.8443C27.1774 34.0854 27.1774 36.0933 25.9363 37.3345C25.4195 37.8555 24.7375 38.1774 24.0046 38.2495H23.9792C23.6869 35.9747 21.9332 34.0643 19.5568 33.6872C16.672 33.2297 13.9567 35.208 13.4992 38.0885L13.4484 38.4189L13.3933 38.0885C12.9401 35.208 10.2205 33.2297 7.33578 33.6872C4.95936 34.0643 3.20563 35.9747 2.91758 38.2495H2.86251C2.1339 38.1774 1.4519 37.8555 0.930871 37.3345C-0.31029 36.0933 -0.31029 34.0812 0.930871 32.84L5.47615 28.299C5.71761 28.0575 5.99718 27.8542 6.30642 27.7017C4.42986 25.859 3.26916 23.2962 3.26916 20.458C3.26916 19.6024 3.37506 18.7679 3.57416 17.9757C1.90092 17.2683 0.727522 15.612 0.727522 13.6804C0.727522 11.1048 2.81168 9.0207 5.38718 9.0207C7.03501 9.0207 8.47528 9.87636 9.30553 11.1684C10.5679 10.605 11.9658 10.2915 13.4357 10.2915C14.9056 10.2915 16.2993 10.605 17.5616 11.1684C18.3919 9.87636 19.8364 9.0207 21.4842 9.0207C22.2382 9.0207 22.9499 9.19861 23.581 9.51631C23.8733 11.4268 24.7714 13.1381 26.0803 14.4471C25.8177 16.0441 24.7417 17.3657 23.293 17.9757C23.4921 18.7679 23.6022 19.6024 23.6022 20.458C23.6022 23.2962 22.4373 25.859 20.565 27.7017C20.87 27.8542 21.1495 28.0575 21.3952 28.299ZM3.26916 13.6804C3.26916 14.5064 3.75207 15.2562 4.50186 15.5993C5.15844 14.3963 6.05225 13.333 7.12822 12.4815C6.73424 11.9055 6.0819 11.5623 5.38297 11.5623C4.21381 11.5623 3.26494 12.5112 3.26916 13.6804ZM9.11493 25.9649C9.11493 27.8372 11.0466 29.3538 13.4357 29.3538C15.8206 29.3538 17.7565 27.8372 17.7565 25.9649C17.7565 24.0926 15.8206 22.5761 13.4357 22.5761C11.0466 22.5761 9.11493 24.0926 9.11493 25.9649ZM21.4884 11.5623C20.7895 11.5623 20.1329 11.9055 19.7389 12.4815C20.8149 13.333 21.713 14.3963 22.3695 15.5993C23.1193 15.2562 23.6022 14.5064 23.6022 13.6804C23.6022 12.5112 22.6576 11.5623 21.4884 11.5623ZM18.7488 34.8909C16.732 34.873 15.0467 36.4417 14.7312 38.4338L14.4254 40.3647C14.0647 42.6421 15.1828 44.6542 17.1064 45.2605C19.4987 46.0144 21.9287 44.44 22.3063 42.0559L22.7039 39.5455C23.0815 37.1614 21.257 34.9131 18.7488 34.8909ZM12.1399 38.2864C11.7623 35.9023 9.33224 34.3278 6.93998 35.0818C5.01638 35.688 3.89831 37.7008 4.21384 39.6928L4.51965 41.6237C4.88035 43.9011 6.56557 45.4693 8.58238 45.4514C11.0905 45.4292 12.9151 43.1809 12.5375 40.7968L12.1399 38.2864ZM14.3284 23.8235H12.54C12.2256 23.8235 12.0501 24.1864 12.2453 24.4328L13.0944 25.5047C13.1851 25.6192 13.304 25.6743 13.4342 25.6743C13.5644 25.6743 13.6833 25.6192 13.774 25.5047L14.6231 24.4328C14.8183 24.1864 14.6428 23.8235 14.3284 23.8235Z" fill="currentColor"/>
</svg>
