<svg width="24" height="24" viewBox="0 0 24 24" fill="none" xmlns="http://www.w3.org/2000/svg">
<g id="ico / 24 / actions / refresh">
<path id="Icon color" d="M20.5 10H15.5C15.2239 10 15 9.77614 15 9.5V9.20999C14.9981 9.07441 15.0524 8.94407 15.15 8.85L16.93 7.06999C15.6298 5.74828 13.8541 5.00272 12 4.99999C8.19718 5.00858 5.09681 8.0517 5.01736 11.8537C4.93791 15.6558 7.90844 18.8257 11.7076 18.9932C15.5068 19.1606 18.7447 16.2643 19 12.47C19.0159 12.2056 19.2352 11.9995 19.5 12H20.5C20.6364 12.004 20.7657 12.0615 20.86 12.16C20.9519 12.2605 20.9989 12.3941 20.99 12.53C20.7417 16.767 17.5669 20.2546 13.3719 20.899C9.17678 21.5434 5.10168 19.1694 3.59313 15.2022C2.08458 11.2351 3.55265 6.7532 7.11594 4.44737C10.6792 2.14154 15.3692 2.63855 18.37 5.64L19.86 4.14999C19.9517 4.05485 20.0779 4.00076 20.21 3.99999H20.5C20.7762 3.99999 21 4.22385 21 4.49999V9.5C21 9.77614 20.7762 10 20.5 10Z" fill="currentColor"/>
</g>
</svg>
