<svg width="40" height="38" viewBox="0 0 40 38" fill="none" xmlns="http://www.w3.org/2000/svg">
<path id="Union" fill-rule="evenodd" clip-rule="evenodd" d="M21.4634 0.463379H19.5122V37.5365H21.4634V0.463379ZM37.0732 5.37997C37.0732 6.99641 35.7628 8.30679 34.1463 8.30679C32.5299 8.30679 31.2195 6.99641 31.2195 5.37997C31.2195 3.76352 32.5299 2.45314 34.1463 2.45314C35.7628 2.45314 37.0732 3.76352 37.0732 5.37997ZM36.0976 9.24387H32.1951C31.1601 9.24387 30.1675 9.65502 29.4357 10.3869C28.7038 11.1187 28.2927 12.1113 28.2927 13.1463V21.9287C28.2927 22.187 28.3953 22.4346 28.5779 22.6172C28.7605 22.7998 29.0081 22.9024 29.2663 22.9024H31.2195V34.6097C31.205 34.9829 31.3391 35.3465 31.5924 35.6209C31.8458 35.8953 32.1976 36.0579 32.5707 36.0731H35.722C36.0951 36.0579 36.4469 35.8953 36.7002 35.6209C36.9536 35.3465 37.0877 34.9829 37.0732 34.6097V22.9024H39.0263C39.2846 22.9024 39.5322 22.7998 39.7148 22.6172C39.8974 22.4346 40 22.187 40 21.9287V13.1463C40 12.1113 39.5889 11.1187 38.857 10.3869C38.1252 9.65502 37.1326 9.24387 36.0976 9.24387ZM11.7073 18.1307V13.6341C11.7073 12.5991 11.2962 11.6065 10.5643 10.8747C9.83247 10.1428 8.83987 9.73167 7.80488 9.73167H5.85366C4.81867 9.73167 3.82607 10.1428 3.09422 10.8747C2.36237 11.6065 1.95122 12.5991 1.95122 13.6341V18.4273L0 25.0014C1.37116 25.6818 2.86304 26.0851 4.39024 26.1883V34.6009C4.39024 34.7943 4.42832 34.9857 4.50231 35.1643C4.57629 35.3429 4.68473 35.5052 4.82144 35.6419C4.95815 35.7786 5.12044 35.8871 5.29905 35.9611C5.47767 36.0351 5.66911 36.0731 5.86244 36.0731H7.7961C8.18655 36.0731 8.56101 35.918 8.8371 35.6419C9.11319 35.3658 9.26829 34.9914 9.26829 34.6009V26.1883C10.7955 26.0851 12.2874 25.6818 13.6585 25.0014L11.7073 18.1307ZM9.7561 5.82923C9.7561 7.44568 8.44571 8.75606 6.82927 8.75606C5.21283 8.75606 3.90244 7.44568 3.90244 5.82923C3.90244 4.21279 5.21283 2.9024 6.82927 2.9024C8.44571 2.9024 9.7561 4.21279 9.7561 5.82923Z" fill="currentColor"/>
</svg>
