<svg width="25" height="24" viewBox="0 0 25 24" fill="none" xmlns="http://www.w3.org/2000/svg">
<path fill-rule="evenodd" clip-rule="evenodd" d="M18.47 10.4311C18.3386 10.0295 18.083 9.67981 17.74 9.4324L17.71 9.42242C16.6569 8.66048 16.2152 7.30768 16.6162 6.07222C17.0172 4.83676 18.1696 4 19.47 4C20.7705 4 21.9228 4.83676 22.3238 6.07222C22.7248 7.30768 22.2832 8.66048 21.23 9.42242C20.8871 9.66982 20.6315 10.0195 20.5 10.4211L20.11 11.6795C20.0418 11.8811 19.8532 12.0175 19.64 12.019H19.36C19.1469 12.0175 18.9582 11.8811 18.89 11.6795L18.47 10.4311ZM11.5 13.5071C11.5026 11.343 9.96047 9.48441 7.83081 9.08489C5.70114 8.68536 3.5888 9.85838 2.80485 11.8759C2.02091 13.8934 2.78801 16.1824 4.63004 17.3221C5.03589 17.5616 5.34401 17.9365 5.50004 18.3807L5.81004 19.3195C5.95303 19.7443 6.36188 20.022 6.81004 19.9986H7.37004C7.81819 20.022 8.22704 19.7443 8.37004 19.3195L8.50004 18.3807C8.64589 17.9427 8.93919 17.5686 9.33004 17.3221C10.668 16.5134 11.4897 15.069 11.5 13.5071ZM7.00004 15.5045C5.89547 15.5045 5.00004 14.6102 5.00004 13.5071C5.00004 12.404 5.89547 11.5097 7.00004 11.5097C8.1046 11.5097 9.00004 12.404 9.00004 13.5071C9.00004 14.6102 8.1046 15.5045 7.00004 15.5045ZM19.5 6.01686C20.0523 6.01686 20.5 6.46399 20.5 7.01555C20.5 7.56712 20.0523 8.01425 19.5 8.01425C18.9478 8.01425 18.5 7.56712 18.5 7.01555C18.5 6.46399 18.9478 6.01686 19.5 6.01686ZM16 11.5796L16.5 12.009L22.23 18.1211C22.5027 18.4108 22.5773 18.8344 22.42 19.1997L22.34 19.3894C22.1835 19.7584 21.8213 19.9983 21.42 19.9986H10.64C10.4796 19.9974 10.3295 19.9195 10.2365 19.789C10.1434 19.6584 10.1187 19.4913 10.17 19.3395L10.39 18.6803C10.533 18.2555 10.9419 17.9779 11.39 18.0012H19.2L13.63 11.8592C13.3574 11.5695 13.2827 11.1459 13.44 10.7806L13.52 10.5909C13.6781 10.2291 14.0348 9.99425 14.43 9.99168H16.1C16.3122 9.99619 16.4994 10.1314 16.57 10.3312L16.88 11.25C16.9143 11.3228 16.9143 11.407 16.88 11.4797C16.8328 11.5426 16.7587 11.5796 16.68 11.5796H16Z" fill="currentColor"/>
</svg>
