<?xml version="1.0" encoding="UTF-8"?>
<svg width="42" height="37" id="Layer_2" data-name="Layer 2" xmlns="http://www.w3.org/2000/svg" viewBox="0 0 581 511">
  <g id="Layer_1-2" data-name="Layer 1">
    <path d="m292,0c7.46,2.55,13.81,6.43,17.6,13.79,2.06,4,2.72,8.13,2.71,12.54-.05,19.5-.02,38.99-.02,58.49,0,139.48,0,278.95-.03,418.43,0,2.12,1.01,5.22-.73,6.13-2.29,1.2-3.94-1.83-5.62-3.21-13.79-11.28-27.38-22.81-41.21-34.05-3.72-3.03-5.03-6.4-5.02-11.17.11-132.64.09-265.29.09-397.93,0-1.5-.14-3.01.02-4.5.5-4.49-1.64-6.08-5.86-5.62-.99.11-2,.01-3,.01-62.99,0-125.98,0-188.97,0q-8.82,0-8.83,8.64c0,132.64-.04,265.29.12,397.93,0,5.69-1.51,9.52-6.03,13.14-14.8,11.89-29.22,24.26-43.81,36.4-1,.83-2.28,1.32-3.42,1.97C0,348.33,0,185.67,0,23,2.12,11.38,9.19,4.06,20,0h272Z" fill="currentColor"/>
    <path d="m581,467c-1.21.41-2.23.07-3.27-.63-6.78-4.54-13.52-9.14-20.42-13.5-3.41-2.15-3.54-5.22-3.54-8.66.04-72.16.03-144.32.03-216.49,0-35.83,0-71.66,0-107.49,0-7.07-.02-7.09-7.27-7.09-49.33,0-98.66,0-147.99,0q-7.61,0-7.62,7.82c0,106.99-.05,213.99.13,320.98.01,6.09-1.69,9.89-7.09,12.83-5.97,3.25-11.48,7.37-17.13,11.22-2.63,1.79-3.59.82-3.73-1.91-.08-1.5-.06-3-.06-4.5,0-115.99,0-231.98,0-347.98,0-16.94,8.68-25.66,25.53-25.67,55-.01,109.99,0,164.99,0,15.89,0,21.39,3.63,27.45,18.06v363Z" fill="currentColor"/>
  </g>
</svg>