<svg width="40" height="32" viewBox="0 0 40 32" fill="none" xmlns="http://www.w3.org/2000/svg">
<path id="Union" fill-rule="evenodd" clip-rule="evenodd" d="M19.2857 9.33339C21.7841 9.33339 23.8095 7.30801 23.8095 4.80958C23.8095 2.31115 21.7841 0.285767 19.2857 0.285767C16.7873 0.285767 14.7619 2.31115 14.7619 4.80958C14.7619 7.30801 16.7873 9.33339 19.2857 9.33339ZM34.1286 16.7191L34.5428 14.8524L36.2095 7.39053L34.3381 6.97624L30.719 23.162L32.5857 23.581L34.1286 16.7191ZM9.04762 7.66672C9.04762 10.1651 7.02224 12.1905 4.52381 12.1905C2.02538 12.1905 0 10.1651 0 7.66672C0 5.16829 2.02538 3.14291 4.52381 3.14291C7.02224 3.14291 9.04762 5.16829 9.04762 7.66672ZM40 29.8096H11.4286V31.7143H40V29.8096ZM29.0476 16.9524V28.8572H25.2524V16.9572C25.2658 16.6065 25.1844 16.2586 25.0168 15.9502C24.8492 15.6418 24.6016 15.3843 24.3 15.2048V28.8572H14.3V26.6L19.5381 23.0762C19.8694 22.8534 20.1535 22.5675 20.3742 22.2349C20.5949 21.9022 20.7479 21.5293 20.8244 21.1375C20.9009 20.7456 20.8995 20.3426 20.8201 19.9513C20.7407 19.56 20.585 19.1882 20.3619 18.8572L20.3048 18.7667C20.025 18.3538 19.6481 18.0158 19.2072 17.7825C18.7664 17.5492 18.275 17.4277 17.7762 17.4286C17.1658 17.4222 16.568 17.6016 16.0619 17.9429L14.2857 19.1429V15.4572L11.0667 18.1096C10.681 17.162 10.2571 16.1334 9.83333 15.1096C9.74459 14.8948 9.64117 14.6864 9.52381 14.4858C10.5322 13.5204 11.5942 12.6126 12.7048 11.7667C13.3902 11.1867 14.2388 10.834 15.1333 10.7572H22.6C25.919 10.781 29.0476 13.4953 29.0476 16.8286V16.9524ZM19.5571 19.3858L19.5 19.3C19.1887 18.8413 18.7086 18.5242 18.1644 18.4181C17.6202 18.3119 17.0562 18.4253 16.5952 18.7334L11.6333 22.0667L11.5841 21.944L11.584 21.9439C11.0417 20.5929 9.95899 17.8958 8.95238 15.4762C8.72211 14.9491 8.34216 14.5011 7.85966 14.1879C7.37716 13.8747 6.81332 13.71 6.2381 13.7143H2.95238C2.17052 13.7181 1.42175 14.0303 0.868883 14.5832C0.316016 15.1361 0.00375601 15.8848 0 16.6667V31.7143H9.14286V26.7429C9.47779 27.1206 9.93811 27.3644 10.4388 27.4292C10.9394 27.4939 11.4466 27.3753 11.8667 27.0953L19.0095 22.2905C19.4652 21.9763 19.7784 21.4948 19.881 20.9508C19.9835 20.4068 19.8671 19.8444 19.5571 19.3858ZM36.1905 19.9667V27.4286H38.0952V28.8572H31.9048V27.4286H34.7619L34.8476 20.3572L34.5333 18.9191L35.2048 16.1572L36.1905 19.9667Z" fill="currentColor"/>
</svg>
