<svg width="32" height="40" viewBox="0 0 32 40" fill="none" xmlns="http://www.w3.org/2000/svg">
<g id="icon">
<path id="Vector" d="M1.00118 34.6558C0.782695 37.5397 3.06376 40.0001 5.95593 40.0001H26.0442C28.9363 40.0001 31.2174 37.5397 30.9989 34.6558L28.9193 7.20508H3.08077L1.00118 34.6558ZM20.969 10.6833C21.7923 10.6833 22.4597 11.3507 22.4597 12.174C22.4597 12.9973 21.7923 13.6647 20.969 13.6647C20.1457 13.6647 19.4783 12.9973 19.4783 12.174C19.4783 11.3507 20.1457 10.6833 20.969 10.6833ZM11.0311 10.6833C11.8544 10.6833 12.5218 11.3507 12.5218 12.174C12.5218 12.9973 11.8544 13.6647 11.0311 13.6647C10.2078 13.6647 9.5404 12.9973 9.5404 12.174C9.5404 11.3507 10.2078 10.6833 11.0311 10.6833Z" fill="currentColor"/>
<path id="Vector_2" d="M16.0001 1.49068C18.329 1.49068 20.2237 3.38558 20.2237 5.71429H21.7143C21.7143 2.56357 19.151 0 16.0001 0C12.8491 0 10.2858 2.56357 10.2858 5.71429H11.7764C11.7764 3.38558 13.6711 1.49068 16.0001 1.49068Z" fill="currentColor"/>
</g>
</svg>
