<svg width="48" height="20" viewBox="0 0 48 20" fill="none" xmlns="http://www.w3.org/2000/svg">
<path id="Union" fill-rule="evenodd" clip-rule="evenodd" d="M6.6383 6.93615H9.70213C13.3626 6.93615 16.3404 3.95834 16.3404 0.297852H14.8085C14.8085 3.11359 12.5179 5.40423 9.70213 5.40423H6.6383C2.97781 5.40423 0 8.38204 0 12.0425H1.53191C1.53191 9.22679 3.82256 6.93615 6.6383 6.93615ZM0 13.5744H1.53191V19.7021H0V13.5744ZM4.59575 13.5744H3.06383V19.7021H4.59575V13.5744ZM48 13.5744H37.7872H6.12766V19.7021H37.7872H48V13.5744ZM36.2553 18.1702H7.65957V15.1064H36.2553V18.1702ZM6.89362 8.21275V9.74466C5.62649 9.74466 4.59574 10.7754 4.59574 12.0425H3.06383C3.06383 9.93067 4.78175 8.21275 6.89362 8.21275Z" fill="currentColor"/>
</svg>
