<svg width="48" height="40" viewBox="0 0 48 40" fill="none" xmlns="http://www.w3.org/2000/svg">
<path id="Union" fill-rule="evenodd" clip-rule="evenodd" d="M39.4523 9.76028L47.9999 8.05075V4.72815C47.9977 3.96439 47.3791 3.34582 46.6153 3.34353H42V2.07431C41.9991 1.30998 41.3797 0.690588 40.6153 0.689697H37.3846C36.6203 0.690587 36.0009 1.30998 36 2.07431V3.34353H31.3846C30.6209 3.34582 30.0023 3.96439 30 4.72815V8.05075L38.5477 9.76028C38.8462 9.82025 39.1537 9.82025 39.4523 9.76028ZM36.9231 2.07431C36.9233 1.81951 37.1298 1.61303 37.3846 1.61277H40.6153C40.8701 1.61303 41.0766 1.81951 41.0769 2.07431V3.34353H36.9231V2.07431ZM38.3663 10.6658L37.9615 10.5846V11.6512C37.9618 11.8423 38.1166 11.9971 38.3077 11.9974H39.6923C39.8833 11.9971 40.0382 11.8423 40.0384 11.6512V10.5844L39.6337 10.6651C39.2154 10.7494 38.7846 10.7498 38.3663 10.6658ZM31.3846 15.3436H46.6153C47.3791 15.3413 47.9977 14.7228 47.9999 13.959V8.99217L40.7307 10.446V11.6513C40.7301 12.2246 40.2655 12.6891 39.6923 12.6898H38.3077C37.7344 12.6891 37.2698 12.2246 37.2692 11.6513V10.4462L30 8.9924V13.959C30.0023 14.7228 30.6209 15.3413 31.3846 15.3436ZM7.52952 12.5806C8.4707 11.7336 9.9766 11.8277 10.8237 12.7689L12.0943 14.1336C12.9413 15.0748 12.8472 16.5807 11.906 17.4278L7.52952 12.5806ZM34.1199 27.3991L34.981 31.9912C35.1439 32.8601 34.4773 33.6632 33.5934 33.6632H30.8709L30.0709 36.5809C29.6563 38.1957 28.1415 39.2632 26.4944 39.3103H19.9061C18.2986 39.3103 16.9455 38.0839 16.7531 36.4867L16.4237 33.6632L0 14.3218L2.59432 13.1595C4.21512 12.4334 6.11682 12.7956 7.35721 14.0667L13.506 20.9101L24.4238 19.5454L24.8944 23.3101L16.2825 24.0631L19.2943 27.4984L32.6009 26.2536C33.3271 26.1857 33.9855 26.6821 34.1199 27.3991ZM26.4944 37.8985C27.4852 37.8654 28.3983 37.1903 28.7062 36.2044L29.365 33.6632H17.8355L18.1649 36.3456C18.2811 37.2097 19.0097 37.8985 19.9061 37.8985H26.4944ZM45.6597 33.1642L36.9415 26.369C36.4238 25.9455 35.6238 26.1808 35.2944 26.8396L36.4238 32.0161L44.5477 35.6979C44.8583 35.8398 45.2261 35.7391 45.4209 35.4586L45.9035 34.764C46.26 34.2506 46.153 33.5481 45.6597 33.1642Z" fill="currentColor"/>
</svg>
