<svg width="20" height="20" viewBox="0 0 20 20" fill="none" xmlns="http://www.w3.org/2000/svg">
<g id="ico / 24 / alerts / warning">
<path id="Icon color" fill-rule="evenodd" clip-rule="evenodd" d="M19.0876 16.3584L10.6773 1.97502C10.5633 1.78436 10.3577 1.66736 10.1355 1.66669H9.88542C9.66324 1.66736 9.45764 1.78436 9.34363 1.97502L0.916632 16.3584C0.808388 16.5556 0.808388 16.7944 0.916632 16.9917L1.03333 17.1834C1.14134 17.3811 1.34981 17.5029 1.57512 17.5H18.4291C18.6544 17.5029 18.8629 17.3811 18.9709 17.1834L19.0876 16.9917C19.1958 16.7944 19.1958 16.5556 19.0876 16.3584ZM10.8356 13.75C10.8356 13.9801 10.6491 14.1667 10.4189 14.1667H9.58535C9.35518 14.1667 9.16858 13.9801 9.16858 13.75V12.9167C9.16858 12.6866 9.35518 12.5 9.58535 12.5H10.4189C10.6491 12.5 10.8356 12.6866 10.8356 12.9167V13.75ZM10.4439 10.8334C10.5499 10.8341 10.6396 10.7552 10.6523 10.65L10.9857 7.96669C11.0001 7.84781 10.9626 7.72849 10.8828 7.63917C10.803 7.54985 10.6887 7.49916 10.5689 7.50002H9.43531C9.31554 7.49916 9.20119 7.54985 9.12142 7.63917C9.04165 7.72849 9.00417 7.84781 9.01855 7.96669L9.35196 10.65C9.36468 10.7552 9.45436 10.8341 9.56034 10.8334H10.4439Z" fill="currentColor"/>
</g>
</svg>
